<svg width="26" height="26" viewBox="0 0 26 26" fill="none" xmlns="http://www.w3.org/2000/svg">
<path d="M24.5251 11.034L21.4519 10.5317C21.272 9.91494 21.026 9.32214 20.7182 8.76106L22.5122 6.20422C22.6573 5.99778 22.6323 5.71646 22.454 5.53758L20.4317 3.51634C20.2512 3.33642 19.9673 3.31302 19.7604 3.46226L17.242 5.27238C16.6757 4.95934 16.0777 4.71078 15.4574 4.53034L14.9212 1.46962C14.8776 1.22106 14.6618 1.03906 14.409 1.03906H11.549C11.2942 1.03906 11.0769 1.22366 11.0358 1.47534L10.5387 4.51942C9.91469 4.69882 9.31565 4.94478 8.75145 5.25366L6.23985 3.45966C6.03237 3.31146 5.75001 3.33538 5.56957 3.51478L3.54833 5.53602C3.36997 5.71438 3.34501 5.99518 3.49009 6.20162L5.25757 8.73038C4.94297 9.29978 4.69233 9.90246 4.50981 10.5296L1.47769 11.0345C1.22705 11.0761 1.04297 11.2935 1.04297 11.5472V14.4072C1.04297 14.6594 1.22393 14.8752 1.47197 14.9194L4.50409 15.4571C4.68557 16.0827 4.93621 16.6853 5.25185 17.2563L3.46253 19.7591C3.31485 19.9655 3.33825 20.2489 3.51765 20.4293L5.53941 22.4527C5.71777 22.631 5.99909 22.656 6.20553 22.5109L8.73793 20.7372C9.30629 21.0497 9.90689 21.2977 10.5293 21.4777L11.0368 24.5254C11.0779 24.7755 11.2948 24.9591 11.549 24.9591H14.409C14.6612 24.9591 14.877 24.7781 14.9207 24.5301L15.4641 21.4673C16.0876 21.2837 16.6851 21.0341 17.2477 20.7211L19.7983 22.5104C20.0053 22.6565 20.2861 22.631 20.465 22.4527L22.4867 20.4293C22.6666 20.2489 22.6901 19.9645 22.5408 19.7575L20.7218 17.2319C21.0302 16.6703 21.2751 16.0764 21.4535 15.4597L24.5308 14.9194C24.7799 14.8757 24.9609 14.6594 24.9609 14.4072V11.5472C24.9614 11.2924 24.7768 11.0751 24.5251 11.034ZM13.0019 16.6391C10.9916 16.6391 9.36193 15.0094 9.36193 12.9991C9.36193 10.9887 10.9916 9.35906 13.0019 9.35906C15.0122 9.35906 16.6419 10.9887 16.6419 12.9991C16.6419 15.0094 15.0122 16.6391 13.0019 16.6391Z" fill="#2D5697"/>
</svg>
