<svg width="18" height="18" viewBox="0 0 18 18" fill="none" xmlns="http://www.w3.org/2000/svg">
<path d="M8.98076 1.78333C8.66271 1.78799 8.35951 1.91873 8.1378 2.14682C7.91609 2.3749 7.79399 2.68168 7.79834 2.99974V7.79974H2.99834C2.83933 7.79749 2.68145 7.82687 2.53389 7.88616C2.38633 7.94546 2.25202 8.03349 2.13878 8.14515C2.02554 8.2568 1.93561 8.38985 1.87423 8.53656C1.81286 8.68326 1.78125 8.84071 1.78125 8.99974C1.78125 9.15877 1.81286 9.31621 1.87423 9.46292C1.93561 9.60963 2.02554 9.74268 2.13878 9.85433C2.25202 9.96598 2.38633 10.054 2.53389 10.1133C2.68145 10.1726 2.83933 10.202 2.99834 10.1997H7.79834V14.9997C7.79609 15.1588 7.82547 15.3166 7.88477 15.4642C7.94406 15.6118 8.0321 15.7461 8.14375 15.8593C8.2554 15.9725 8.38845 16.0625 8.53516 16.1238C8.68187 16.1852 8.83931 16.2168 8.99834 16.2168C9.15737 16.2168 9.31482 16.1852 9.46152 16.1238C9.60823 16.0625 9.74128 15.9725 9.85293 15.8593C9.96459 15.7461 10.0526 15.6118 10.1119 15.4642C10.1712 15.3166 10.2006 15.1588 10.1983 14.9997V10.1997H14.9983C15.1574 10.202 15.3152 10.1726 15.4628 10.1133C15.6104 10.054 15.7447 9.96598 15.8579 9.85433C15.9711 9.74268 16.0611 9.60963 16.1224 9.46292C16.1838 9.31621 16.2154 9.15877 16.2154 8.99974C16.2154 8.84071 16.1838 8.68326 16.1224 8.53656C16.0611 8.38985 15.9711 8.2568 15.8579 8.14515C15.7447 8.03349 15.6104 7.94546 15.4628 7.88616C15.3152 7.82687 15.1574 7.79749 14.9983 7.79974H10.1983V2.99974C10.2005 2.83929 10.1705 2.68003 10.1101 2.53138C10.0497 2.38273 9.96006 2.24771 9.84654 2.1343C9.73302 2.02089 9.59791 1.9314 9.4492 1.87112C9.3005 1.81083 9.14121 1.78098 8.98076 1.78333Z" fill="white"/>
</svg>
