<svg width="30" height="22" viewBox="0 0 30 22" fill="none" xmlns="http://www.w3.org/2000/svg">
<rect y="0.5" width="30" height="21" rx="7" fill="white"/>
<rect x="0.5" y="1" width="29" height="20" rx="6.5" stroke="#A2A2A2" stroke-opacity="0.93"/>
<path d="M18.9464 6C18.562 6 18.25 6.30545 18.25 6.68182V6.7342L13.1429 8.27273V12.8182L18.25 14.3567V14.4091C18.25 14.7855 18.562 15.0909 18.9464 15.0909C19.3309 15.0909 19.6429 14.7855 19.6429 14.4091V6.68182C19.6429 6.30545 19.3309 6 18.9464 6ZM12.2143 8.36328L9.33608 8.6456C8.86158 8.69196 8.5 9.08298 8.5 9.55025V11.5407C8.5 12.0079 8.86158 12.3989 9.33608 12.4453L10.4641 12.5563L10.9983 15.6218C11.0359 15.8404 11.2292 16 11.4553 16H11.75C12.0063 16 12.2143 15.7964 12.2143 15.5455L12.2125 12.7276H12.2143V8.36328ZM20.5714 9.40909V11.6818L20.7963 11.6268C21.2095 11.5254 21.5 11.162 21.5 10.7452V10.3466C21.5 9.92932 21.2095 9.5655 20.7963 9.46413L20.5714 9.40909Z" fill="#2D5697"/>
</svg>
