<svg width="33" height="33" viewBox="0 0 33 33" fill="none" xmlns="http://www.w3.org/2000/svg">
<rect width="33" height="33" rx="16.5" fill="#FF0000" fill-opacity="0.15"/>
<path d="M16.5 8.51953C15.8093 8.51953 15.24 9.08883 15.24 9.77953V10.3521C13.2122 10.8509 11.88 12.5571 11.88 14.8458V18.1221C11.88 19.0343 11.3419 20.0679 11.0318 20.5847L10.2705 21.7266C10.1852 21.8545 10.1754 22.0219 10.2492 22.158C10.323 22.2942 10.4658 22.3795 10.62 22.3795H22.38C22.5342 22.3795 22.677 22.2942 22.7508 22.158C22.8246 22.0219 22.8148 21.8562 22.7295 21.7266L21.9797 20.6011C21.4005 19.638 21.12 18.8456 21.12 18.1795V14.9032C21.12 12.5866 19.7878 10.8591 17.76 10.3554V9.77953C17.76 9.08883 17.1907 8.51953 16.5 8.51953ZM16.5 9.35953C16.733 9.35953 16.92 9.54656 16.92 9.77953V10.2192C16.7822 10.2077 16.6427 10.1995 16.5 10.1995C16.3573 10.1995 16.2178 10.2077 16.08 10.2192V9.77953C16.08 9.54656 16.267 9.35953 16.5 9.35953ZM7.4618 9.97969C6.525 11.5022 6 13.3151 6 15.2395C6 17.164 6.525 18.9769 7.4618 20.4994L8.17875 20.0597C7.32398 18.6701 6.84 17.0114 6.84 15.2395C6.84 13.4677 7.32398 11.809 8.17875 10.4194L7.4618 9.97969ZM25.5382 9.97969L24.8212 10.4194C25.676 11.809 26.16 13.4677 26.16 15.2395C26.16 17.0114 25.676 18.6701 24.8212 20.0597L25.5382 20.4994C26.475 18.9769 27 17.164 27 15.2395C27 13.3151 26.475 11.5022 25.5382 9.97969ZM9.28289 11.0986C8.51836 12.334 8.1 13.7088 8.1 15.2395C8.1 16.7817 8.57414 18.1992 9.27961 19.3755L9.99984 18.9424C9.36328 17.8793 8.94 16.6095 8.94 15.2395C8.94 13.8581 9.30586 12.6572 9.99656 11.5399L9.28289 11.0986ZM23.7171 11.0986L23.0034 11.5399C23.6941 12.6572 24.06 13.8581 24.06 15.2395C24.06 16.6095 23.6367 17.8793 22.9985 18.9424L23.7204 19.3755C24.4259 18.1992 24.9 16.7817 24.9 15.2395C24.9 13.7088 24.4816 12.334 23.7171 11.0986ZM14.5772 23.2195C14.9037 23.9595 15.6403 24.4795 16.5 24.4795C17.3597 24.4795 18.0963 23.9595 18.4228 23.2195H14.5772Z" fill="#FF0000" fill-opacity="0.66"/>
</svg>
