<svg width="33" height="33" viewBox="0 0 33 33" fill="none" xmlns="http://www.w3.org/2000/svg">
<rect width="33" height="33" rx="16.5" fill="#FBBF24" fill-opacity="0.46"/>
<g clip-path="url(#clip0_57_3356)">
<path d="M15.9596 24.8327C11.3763 24.8327 7.66797 21.0827 7.66797 16.4993C7.66797 11.916 11.3763 8.16602 15.9596 8.16602C19.3763 8.16602 22.5013 10.3327 23.7096 13.541L22.168 14.1243C21.2096 11.5827 18.7096 9.83268 15.9596 9.83268C12.293 9.83268 9.33464 12.8327 9.33464 16.4993C9.33464 20.166 12.293 23.166 15.9596 23.166C18.668 23.166 21.0846 21.541 22.1263 18.9993L23.668 19.6243C22.3763 22.791 19.3763 24.8327 15.9596 24.8327Z" fill="#FBC02D"/>
<path d="M24.75 11.084L23.5 15.2507L19.75 13.709L24.75 11.084Z" fill="#FBC02D"/>
<path d="M26.0013 22.3327C26.0013 24.6339 24.1355 26.4993 21.8346 26.4993C19.5334 26.4993 17.668 24.6339 17.668 22.3327C17.668 20.0314 19.5334 18.166 21.8346 18.166C24.1355 18.166 26.0013 20.0314 26.0013 22.3327Z" fill="#43A047"/>
<path d="M23.7046 20.3965L21.3337 22.7719L20.1971 21.6382L19.3125 22.5244L21.3354 24.5427L24.5908 21.2811L23.7046 20.3965Z" fill="#DCEDC8"/>
</g>
<defs>
<clipPath id="clip0_57_3356">
<rect width="20" height="20" fill="white" transform="translate(6 6.5)"/>
</clipPath>
</defs>
</svg>
