<svg width="22" height="24" viewBox="0 0 22 24" fill="none" xmlns="http://www.w3.org/2000/svg">
<rect y="0.5" width="22" height="23" rx="4" fill="#EAF6FF"/>
<path d="M7.04348 4.5C6.7106 4.5 6.43478 4.7832 6.43478 5.125V5.75H4.6087C4.44939 5.75 4.2877 5.80981 4.17357 5.92822C4.05825 6.04541 4 6.21143 4 6.375V18.875C4 19.0386 4.05825 19.2046 4.17357 19.323C4.2877 19.4402 4.44939 19.5 4.6087 19.5H17.3913C17.5506 19.5 17.7123 19.4402 17.8276 19.323C17.9417 19.2046 18 19.0386 18 18.875V6.375C18 6.21143 17.9417 6.04541 17.8276 5.92822C17.7123 5.80981 17.5506 5.75 17.3913 5.75H15.5652V5.125C15.5652 4.7832 15.2894 4.5 14.9565 4.5H14.3478C14.0149 4.5 13.7391 4.7832 13.7391 5.125V5.75H8.26087V5.125C8.26087 4.7832 7.98505 4.5 7.65217 4.5H7.04348ZM7.04348 5.125H7.65217V7H7.04348V5.125ZM14.3478 5.125H14.9565V7H14.3478V5.125ZM4.6087 6.375H6.43478V7C6.43478 7.3418 6.7106 7.625 7.04348 7.625H7.65217C7.98505 7.625 8.26087 7.3418 8.26087 7V6.375H13.7391V7C13.7391 7.3418 14.0149 7.625 14.3478 7.625H14.9565C15.2894 7.625 15.5652 7.3418 15.5652 7V6.375H17.3913V8.5625H4.6087V6.375ZM4.6087 9.1875H17.3913V18.875H4.6087V9.1875ZM6.43478 10.4375V17.625H15.5652V10.4375H6.43478ZM7.04348 11.0625H8.56522V12.625H7.04348V11.0625ZM9.17391 11.0625H10.6957V12.625H9.17391V11.0625ZM11.3043 11.0625H12.8261V12.625H11.3043V11.0625ZM13.4348 11.0625H14.9565V12.625H13.4348V11.0625ZM7.04348 13.25H8.56522V14.8125H7.04348V13.25ZM9.17391 13.25H10.6957V14.8125H9.17391V13.25ZM11.3043 13.25H12.8261V14.8125H11.3043V13.25ZM13.4348 13.25H14.9565V14.8125H13.4348V13.25ZM7.04348 15.4375H8.56522V17H7.04348V15.4375ZM9.17391 15.4375H10.6957V17H9.17391V15.4375ZM11.3043 15.4375H12.8261V17H11.3043V15.4375ZM13.4348 15.4375H14.9565V17H13.4348V15.4375Z" fill="#2D5697"/>
</svg>
