<svg width="24" height="25" viewBox="0 0 24 25" fill="none" xmlns="http://www.w3.org/2000/svg">
<path d="M10.832 0.833984L6.89453 9.00065H9.66536V14.4329L10.0299 14.7611L11.9987 13.6673V9.00065H14.7695L10.832 0.833984ZM8.97266 2.07357L0.332031 6.66732L5.50911 9.00065L8.97266 2.07357ZM12.6914 2.07357L16.1549 9.00065L21.332 6.66732L12.6914 2.07357ZM18.4154 10.1673C17.4492 10.1673 16.6654 10.9512 16.6654 11.9173C16.6654 12.8835 17.4492 13.6673 18.4154 13.6673C19.3815 13.6673 20.1654 12.8835 20.1654 11.9173C20.1654 10.9512 19.3815 10.1673 18.4154 10.1673ZM15.9727 12.7194C14.5189 13.7812 11.1556 15.627 10.5404 15.9642C10.2806 16.1055 9.94336 16.1191 9.66536 16.0007C8.71289 15.5905 8.07487 14.6289 7.51432 14.2142C6.79427 13.681 5.99675 13.4121 4.67057 14.2507C3.76367 14.8249 1.09766 16.6204 1.09766 16.6204L2.44661 18.4069L6.12891 16.0736C6.12891 16.0736 7.74219 17.7188 8.75391 18.1517C9.69271 18.5527 10.7819 18.4889 11.6706 18.0059C12.623 17.4863 16.9616 14.9069 17.3581 14.6152L15.9727 12.7194ZM21.9154 13.8132L11.707 19.5007H0.332031V21.834H2.66536V24.1673H4.9987V21.834H18.9987V24.1673H21.332V21.834H23.6654V19.5007H22.4258L21.6237 16.6569L23.082 15.8548L21.9154 13.8132ZM19.5091 17.8236L20.0195 19.5007H16.4831L19.5091 17.8236Z" fill="#2D5697"/>
</svg>
