<svg width="27" height="27" viewBox="0 0 27 27" fill="none" xmlns="http://www.w3.org/2000/svg">
<path d="M7.03125 2.25C5.63625 2.25 4.5 3.38625 4.5 4.78125V22.2187C4.5 23.6137 5.63625 24.75 7.03125 24.75H19.9687C21.3637 24.75 22.5 23.6137 22.5 22.2187V16.1378L19.5128 19.1305C19.1697 19.468 18.7425 19.727 18.2812 19.8677L15.4852 20.7279C15.294 20.7842 15.0975 20.8125 14.9062 20.8125C14.3944 20.8125 13.8877 20.6104 13.5165 20.2335C13.3534 20.076 13.2243 19.89 13.1287 19.6875H9.83826C9.37138 19.6875 8.99451 19.3106 8.99451 18.8437C8.99451 18.4162 9.31447 18.0617 9.7251 18.0055L9.83826 18H13.1001L13.7922 15.75H9.84375C9.37687 15.75 9 15.3731 9 14.9062C9 14.4394 9.37687 14.0625 9.84375 14.0625H14.7942L17.6122 11.25H16.0312C14.6362 11.25 13.5 10.1137 13.5 8.71875V2.25H7.03125ZM15.1875 2.74548V8.71875C15.1875 9.18562 15.5644 9.5625 16.0312 9.5625H19.2997L20.4972 8.36389C20.5478 8.30764 20.6046 8.25715 20.6609 8.21777L15.1875 2.74548ZM24.728 7.86401C24.4358 7.87272 24.1583 7.99487 23.9546 8.20459L23.6283 8.53088C22.8273 8.30649 21.9269 8.52478 21.2937 9.1571L15.416 15.0348C15.204 15.2469 15.0473 15.5093 14.9601 15.7939L14.0999 18.5966C14.0082 18.8952 14.0886 19.2192 14.3097 19.4403C14.4706 19.6012 14.6857 19.6875 14.9062 19.6875C14.9889 19.6875 15.0724 19.6755 15.1534 19.6501L17.955 18.791C18.2413 18.7038 18.5031 18.5455 18.7152 18.334L24.6335 12.4167C25.1274 11.9229 25.3723 11.2405 25.3059 10.5447C25.292 10.3988 25.2614 10.2578 25.2213 10.1195L25.5454 9.79541C25.708 9.63739 25.819 9.43394 25.864 9.21173C25.9089 8.98952 25.8857 8.75892 25.7973 8.55013C25.709 8.34135 25.5596 8.16413 25.3688 8.0417C25.178 7.91926 24.9546 7.85733 24.728 7.86401Z" fill="#F97316" fill-opacity="0.85"/>
</svg>
