<svg width="22" height="22" viewBox="0 0 22 22" fill="none" xmlns="http://www.w3.org/2000/svg">
<path d="M2 0C0.895 0 0 0.895 0 2V20C0 21.105 0.895 22 2 22H3.55664C3.21264 21.409 3 20.732 3 20V2C3 1.268 3.21264 0.591 3.55664 0H2ZM7 0C5.895 0 5 0.895 5 2V20C5 21.105 5.895 22 7 22H20C21.105 22 22 21.105 22 20V6.5C22 6.235 21.895 5.98097 21.707 5.79297L16.207 0.292969C16.019 0.104969 15.765 0 15.5 0H7ZM15 1.9043L20.0957 7H16C15.448 7 15 6.552 15 6V1.9043ZM10 11H17C17.552 11 18 11.448 18 12C18 12.552 17.552 13 17 13H10C9.448 13 9 12.552 9 12C9 11.448 9.448 11 10 11ZM10 15H15C15.552 15 16 15.448 16 16C16 16.552 15.552 17 15 17H10C9.448 17 9 16.552 9 16C9 15.448 9.448 15 10 15Z" fill="#6E6E71" fill-opacity="0.35"/>
</svg>
