<svg width="18" height="18" viewBox="0 0 18 18" fill="none" xmlns="http://www.w3.org/2000/svg">
<path d="M8.98901 2.24031C8.79023 2.24323 8.60073 2.32494 8.46216 2.46749C8.32359 2.61005 8.24728 2.80178 8.25 3.00057V10.19L7.28027 9.22029C7.2103 9.14836 7.12659 9.0912 7.03412 9.0522C6.94166 9.0132 6.8423 8.99315 6.74194 8.99324C6.59281 8.99343 6.44711 9.03807 6.32346 9.12146C6.19982 9.20485 6.10384 9.32321 6.04779 9.46141C5.99174 9.59961 5.97816 9.75139 6.00878 9.89735C6.03941 10.0433 6.11285 10.1768 6.21973 10.2808L8.46973 12.5308C8.61038 12.6714 8.80112 12.7504 9 12.7504C9.19888 12.7504 9.38962 12.6714 9.53027 12.5308L11.7803 10.2808C11.8523 10.2117 11.9097 10.129 11.9493 10.0374C11.9889 9.94576 12.0098 9.84719 12.0108 9.74741C12.0118 9.64763 11.9929 9.54865 11.9552 9.45626C11.9175 9.36388 11.8617 9.27995 11.7912 9.20939C11.7206 9.13883 11.6367 9.08306 11.5443 9.04534C11.4519 9.00763 11.3529 8.98872 11.2532 8.98974C11.1534 8.99075 11.0548 9.01167 10.9632 9.05126C10.8716 9.09085 10.7888 9.14831 10.7197 9.22029L9.75 10.19V3.00057C9.75137 2.90029 9.73262 2.80075 9.69485 2.70785C9.65709 2.61494 9.60107 2.53055 9.53012 2.45967C9.45917 2.38879 9.37473 2.33286 9.28179 2.29518C9.18885 2.2575 9.08929 2.23885 8.98901 2.24031ZM4.5 6.37557C3.26624 6.37557 2.25 7.39181 2.25 8.62557V13.5006C2.25 14.7343 3.26624 15.7506 4.5 15.7506H13.5C14.7338 15.7506 15.75 14.7343 15.75 13.5006V8.62557C15.75 7.39181 14.7338 6.37557 13.5 6.37557H12.375C12.2756 6.37416 12.1769 6.39252 12.0847 6.42958C11.9925 6.46664 11.9086 6.52167 11.8378 6.59145C11.767 6.66123 11.7108 6.74439 11.6724 6.83608C11.6341 6.92777 11.6143 7.02618 11.6143 7.12557C11.6143 7.22496 11.6341 7.32337 11.6724 7.41506C11.7108 7.50675 11.767 7.58991 11.8378 7.65969C11.9086 7.72947 11.9925 7.78449 12.0847 7.82155C12.1769 7.85861 12.2756 7.87697 12.375 7.87557H13.5C13.923 7.87557 14.25 8.20258 14.25 8.62557V13.5006C14.25 13.9236 13.923 14.2506 13.5 14.2506H4.5C4.07701 14.2506 3.75 13.9236 3.75 13.5006V8.62557C3.75 8.20258 4.07701 7.87557 4.5 7.87557H5.625C5.72438 7.87697 5.82306 7.85861 5.91528 7.82155C6.00751 7.78449 6.09145 7.72947 6.16223 7.65969C6.233 7.58991 6.28921 7.50675 6.32757 7.41506C6.36593 7.32337 6.38568 7.22496 6.38568 7.12557C6.38568 7.02618 6.36593 6.92777 6.32757 6.83608C6.28921 6.74439 6.233 6.66123 6.16223 6.59145C6.09145 6.52167 6.00751 6.46664 5.91528 6.42958C5.82306 6.39252 5.72438 6.37416 5.625 6.37557H4.5Z" fill="white"/>
</svg>
