<svg width="20" height="20" viewBox="0 0 20 20" fill="none" xmlns="http://www.w3.org/2000/svg">
<path d="M17.7995 0.908203C17.4661 0.908203 17.1331 1.03255 16.8831 1.28255L16.2744 1.89128L18.1087 3.72559L18.7174 3.11686C19.2174 2.61686 19.2174 1.79089 18.7174 1.28255C18.4674 1.03255 18.1328 0.908203 17.7995 0.908203ZM4.16667 2.5C3.25578 2.5 2.5 3.25578 2.5 4.16667V15.8333C2.5 16.7442 3.25578 17.5 4.16667 17.5H15.8333C16.7442 17.5 17.5 16.7442 17.5 15.8333V8.33333C17.5016 8.22291 17.4812 8.11327 17.44 8.0108C17.3988 7.90832 17.3377 7.81506 17.2601 7.73641C17.1826 7.65777 17.0902 7.59533 16.9883 7.5527C16.8864 7.51008 16.7771 7.48813 16.6667 7.48813C16.5562 7.48813 16.4469 7.51008 16.345 7.5527C16.2431 7.59533 16.1507 7.65777 16.0732 7.73641C15.9957 7.81506 15.9345 7.90832 15.8933 8.0108C15.8522 8.11327 15.8318 8.22291 15.8333 8.33333V15.8333H4.16667V4.16667H11.6667C11.7771 4.16823 11.8867 4.14783 11.9892 4.10665C12.0917 4.06547 12.1849 4.00434 12.2636 3.9268C12.3422 3.84926 12.4047 3.75687 12.4473 3.65499C12.4899 3.55311 12.5119 3.44377 12.5119 3.33333C12.5119 3.2229 12.4899 3.11356 12.4473 3.01168C12.4047 2.9098 12.3422 2.8174 12.2636 2.73987C12.1849 2.66233 12.0917 2.6012 11.9892 2.56002C11.8867 2.51884 11.7771 2.49844 11.6667 2.5H4.16667ZM15.3923 2.77507L11.7334 6.43392C11.5251 6.64225 11.3755 6.89928 11.3005 7.18262L10.9326 8.55794C10.8493 8.86628 11.1337 9.15072 11.4421 9.06738L12.8174 8.69954C13.1007 8.62454 13.3577 8.47493 13.5661 8.2666L17.2249 4.60775L15.3923 2.77507Z" fill="#F97316" fill-opacity="0.92"/>
</svg>
