<svg width="30" height="30" viewBox="0 0 30 30" fill="none" xmlns="http://www.w3.org/2000/svg">
<path d="M14.168 5C13.6433 5 13.1185 5.10389 12.6306 5.3122L7.24245 7.59977L14.5002 10.5757C14.9407 10.7585 15.148 11.2555 14.9666 11.6891C14.8284 12.0165 14.5048 12.2123 14.168 12.2123C14.0557 12.2123 13.9436 12.1908 13.8357 12.1483L5.03543 8.53472L2.97177 9.41072C2.1816 9.74657 1.66797 10.5117 1.66797 11.362C1.66797 12.2123 2.1816 12.9774 2.97177 13.3133L12.6306 17.4118C13.1185 17.6201 13.6412 17.7223 14.168 17.7223C14.6904 17.7223 15.2175 17.6201 15.7054 17.4118L25.3642 13.3133C26.1543 12.9774 26.668 12.2123 26.668 11.362C26.668 10.5117 26.1543 9.74657 25.3642 9.41072L15.7054 5.3122C15.2175 5.10389 14.6926 5 14.168 5ZM5.53216 16.251V17.8153V22.7467C5.26905 22.9801 5.10037 23.3146 5.10037 23.6908V25.3913C5.10037 26.0957 5.68026 26.6667 6.39574 26.6667H7.25932C7.9748 26.6667 8.55469 26.0957 8.55469 25.3913V23.6908C8.55469 23.3146 8.386 22.9801 8.1229 22.7467V21.3808C9.43413 22.1365 11.3868 22.8405 14.168 22.8405C18.3952 22.8405 20.7398 21.2166 21.7631 20.2515C22.4237 19.6266 22.8038 18.7379 22.8038 17.8153V16.251L16.3919 18.972C15.688 19.2738 14.9409 19.4229 14.168 19.4229C13.3951 19.4229 12.6479 19.2738 11.9441 18.972L5.53216 16.251Z" fill="#6E6E71" fill-opacity="0.35"/>
</svg>
