<svg width="26" height="26" viewBox="0 0 26 26" fill="none" xmlns="http://www.w3.org/2000/svg">
<path d="M6.19048 0C2.7787 0 0 2.7787 0 6.19048V19.8095C0 23.2213 2.7787 26 6.19048 26H19.8095C23.2213 26 26 23.2213 26 19.8095V6.19048C26 2.7787 23.2213 0 19.8095 0H6.19048ZM8.67029 4.97898C9.05906 4.9957 9.41608 5.21473 9.63151 5.55087C9.87665 5.93345 10.2571 6.52719 10.7523 7.30162C11.2042 8.00795 11.2357 8.92023 10.8321 9.6569L9.92532 10.947C9.68017 11.2961 9.63128 11.743 9.79595 12.1367C10.0522 12.7496 10.5491 13.6915 11.4318 14.5742C12.3146 15.457 13.2565 15.9538 13.8693 16.2101C14.263 16.3748 14.7099 16.3259 15.0591 16.0807L16.3491 15.1739C17.0858 14.7703 17.9981 14.8024 18.7044 15.2537C19.4789 15.749 20.0726 16.1294 20.4552 16.3745C20.7913 16.59 21.0104 16.947 21.0271 17.3358C21.1224 19.542 19.4131 20.4358 18.916 20.4358C18.5718 20.4358 14.4339 20.9061 9.76693 16.2391C5.09993 11.5721 5.57022 7.43422 5.57022 7.09003C5.57022 6.59293 6.46401 4.88365 8.67029 4.97898Z" fill="#6E6E71" fill-opacity="0.35"/>
</svg>
