<svg width="30" height="30" viewBox="0 0 30 30" fill="none" xmlns="http://www.w3.org/2000/svg">
<path d="M15 1.19922C12.2344 1.19922 10.0219 2.73906 9.65625 4.79922H1.8C0.808594 4.79922 0 5.60781 0 6.59922V16.7992C0 17.1297 0.269531 17.3992 0.6 17.3992H12C12 16.4078 12.8086 15.5992 13.8 15.5992H16.2C17.1914 15.5992 18 16.4078 18 17.3992H29.4C29.7305 17.3992 30 17.1297 30 16.7992V6.59922C30 5.60781 29.1914 4.79922 28.2 4.79922H20.3438C19.9781 2.73906 17.7656 1.19922 15 1.19922ZM15 2.39922C17.0695 2.39922 18.75 3.41172 19.125 4.79922H10.875C11.25 3.41172 12.9305 2.39922 15 2.39922ZM13.8 16.7992C13.4695 16.7992 13.2 17.0687 13.2 17.3992V18.5992C13.2 18.9297 13.4695 19.1992 13.8 19.1992H16.2C16.5305 19.1992 16.8 18.9297 16.8 18.5992V17.3992C16.8 17.0687 16.5305 16.7992 16.2 16.7992H13.8ZM0 18.4867V26.9992C0 27.9906 0.808594 28.7992 1.8 28.7992H28.2C29.1914 28.7992 30 27.9906 30 26.9992V18.4867C29.8125 18.5547 29.6109 18.5992 29.4 18.5992H18C18 19.5906 17.1914 20.3992 16.2 20.3992H13.8C12.8086 20.3992 12 19.5906 12 18.5992H0.6C0.389063 18.5992 0.1875 18.5547 0 18.4867Z" fill="#006CBD"/>
</svg>
