<svg width="27" height="27" viewBox="0 0 27 27" fill="none" xmlns="http://www.w3.org/2000/svg">
<path d="M10.8016 2.6993C10.6823 2.69768 10.564 2.71977 10.4534 2.76427C10.3428 2.80877 10.2421 2.87481 10.1572 2.95854C10.0723 3.04228 10.0049 3.14204 9.95895 3.25203C9.91295 3.36203 9.88926 3.48007 9.88926 3.5993H5.40156C4.40706 3.5993 3.60156 4.4048 3.60156 5.3993V15.2993C3.60156 16.2938 4.40706 17.0993 5.40156 17.0993H6.30156C6.30156 15.896 7.09889 14.8387 8.25449 14.5048L15.4545 12.427C15.9432 12.2866 16.4599 12.2866 16.9486 12.427L21.6016 13.77V5.3993C21.6016 4.4048 20.7961 3.5993 19.8016 3.5993H15.3139C15.3139 3.48007 15.2902 3.36203 15.2442 3.25203C15.1982 3.14204 15.1308 3.04228 15.0459 2.95854C14.961 2.87481 14.8604 2.80877 14.7497 2.76427C14.6391 2.71977 14.5208 2.69768 14.4016 2.6993H10.8016ZM12.6016 8.9993C13.0984 8.9993 13.5016 9.4025 13.5016 9.8993C13.5016 10.3961 13.0984 10.7993 12.6016 10.7993C12.1048 10.7993 11.7016 10.3961 11.7016 9.8993C11.7016 9.4025 12.1048 8.9993 12.6016 8.9993ZM16.184 14.1216C16.1054 14.1231 16.0274 14.1349 15.952 14.1567L8.75195 16.2345C8.56438 16.2886 8.39948 16.4022 8.28211 16.5582C8.16474 16.7142 8.10128 16.9041 8.10128 17.0993C8.10128 17.2945 8.16474 17.4844 8.28211 17.6404C8.39948 17.7964 8.56438 17.91 8.75195 17.9641L11.7016 18.8149V22.4993C11.7016 22.738 11.7964 22.9669 11.9652 23.1357C12.134 23.3044 12.3629 23.3993 12.6016 23.3993C14.1016 23.3993 15.799 24.2044 15.799 24.2044C15.924 24.2669 16.0618 24.2994 16.2016 24.2994C16.3413 24.2994 16.4791 24.2669 16.6041 24.2044C16.6041 24.2044 18.3016 23.3993 19.8016 23.3993C20.0402 23.3993 20.2692 23.3044 20.4379 23.1357C20.6067 22.9669 20.7015 22.738 20.7016 22.4993V18.8149L22.5016 18.2964V21.5993C22.4999 21.7186 22.5219 21.837 22.5664 21.9476C22.6109 22.0583 22.6769 22.159 22.7606 22.244C22.8444 22.3289 22.9441 22.3963 23.0542 22.4424C23.1642 22.4884 23.2823 22.5121 23.4016 22.5121C23.5208 22.5121 23.6389 22.4884 23.7489 22.4424C23.859 22.3963 23.9588 22.3289 24.0425 22.244C24.1262 22.159 24.1923 22.0583 24.2367 21.9476C24.2812 21.837 24.3032 21.7186 24.3016 21.5993V17.0993C24.3016 17.0981 24.3016 17.097 24.3016 17.0958C24.3016 17.094 24.3016 17.0923 24.3016 17.0905C24.301 17.0846 24.3004 17.0788 24.2998 17.0729C24.2962 16.8575 24.2155 16.6505 24.0723 16.4896C23.9291 16.3286 23.7329 16.2244 23.5193 16.1958L16.4512 14.1567C16.3644 14.1317 16.2743 14.1198 16.184 14.1216ZM13.5016 19.3352L15.952 20.0419C16.115 20.0889 16.2881 20.0889 16.4512 20.0419L18.9016 19.3352V21.7593C17.5614 21.9405 16.5944 22.2438 16.2016 22.429C15.8087 22.2438 14.8418 21.9405 13.5016 21.7593V19.3352Z" fill="#7C3AED"/>
</svg>
