<svg width="45" height="45" viewBox="0 0 45 45" fill="none" xmlns="http://www.w3.org/2000/svg">
<path d="M22.5008 1.80078C11.0794 1.80078 1.80078 11.0794 1.80078 22.5008C1.80078 33.9222 11.0794 43.2008 22.5008 43.2008C29.0598 43.2008 34.9074 40.1389 38.7008 35.3715V42.3008C38.6991 42.4201 38.7211 42.5385 38.7656 42.6491C38.8101 42.7598 38.8761 42.8605 38.9598 42.9455C39.0436 43.0304 39.1434 43.0978 39.2534 43.1439C39.3634 43.1899 39.4815 43.2136 39.6008 43.2136C39.7201 43.2136 39.8381 43.1899 39.9482 43.1439C40.0582 43.0978 40.158 43.0304 40.2417 42.9455C40.3255 42.8605 40.3915 42.7598 40.436 42.6491C40.4804 42.5385 40.5025 42.4201 40.5008 42.3008V32.4008H39.142H39.0523H30.6008C30.4815 32.3991 30.3631 32.4211 30.2524 32.4656C30.1418 32.5101 30.041 32.5761 29.9561 32.6598C29.8712 32.7436 29.8037 32.8434 29.7577 32.9534C29.7117 33.0634 29.688 33.1815 29.688 33.3008C29.688 33.4201 29.7117 33.5381 29.7577 33.6482C29.8037 33.7582 29.8712 33.858 29.9561 33.9417C30.041 34.0255 30.1418 34.0915 30.2524 34.136C30.3631 34.1804 30.4815 34.2025 30.6008 34.2008H37.3332C33.8725 38.5831 28.5242 41.4008 22.5008 41.4008C12.0522 41.4008 3.60078 32.9494 3.60078 22.5008C3.60078 12.0522 12.0522 3.60078 22.5008 3.60078C32.9494 3.60078 41.4008 12.0522 41.4008 22.5008C41.3991 22.62 41.4211 22.7385 41.4656 22.8491C41.5101 22.9598 41.5761 23.0605 41.6598 23.1455C41.7436 23.2304 41.8434 23.2978 41.9534 23.3439C42.0634 23.3899 42.1815 23.4136 42.3008 23.4136C42.4201 23.4136 42.5381 23.3899 42.6482 23.3439C42.7582 23.2978 42.858 23.2304 42.9417 23.1455C43.0255 23.0605 43.0915 22.9598 43.136 22.8491C43.1804 22.7385 43.2025 22.62 43.2008 22.5008C43.2008 11.0794 33.9222 1.80078 22.5008 1.80078ZM22.5008 5.40078C13.0571 5.40078 5.40078 13.0571 5.40078 22.5008C5.40078 31.9445 13.0571 39.6008 22.5008 39.6008C26.45 39.6008 30.0759 38.249 32.9703 36.0008H30.6008C29.1095 36.0008 27.9008 34.7921 27.9008 33.3008C27.9008 31.8095 29.1095 30.6008 30.6008 30.6008H37.5617C38.8613 28.1897 39.6008 25.4321 39.6008 22.5008C39.6008 13.0571 31.9445 5.40078 22.5008 5.40078ZM22.5008 8.10078C22.9976 8.10078 23.4008 8.50398 23.4008 9.00078V19.966C24.164 20.2378 24.7646 20.8376 25.0355 21.6008H32.4008C32.8976 21.6008 33.3008 22.004 33.3008 22.5008C33.3008 22.9976 32.8976 23.4008 32.4008 23.4008H25.0355C24.6638 24.4475 23.6744 25.2008 22.5008 25.2008C21.0095 25.2008 19.8008 23.9921 19.8008 22.5008C19.8008 21.3272 20.5541 20.3377 21.6008 19.966V9.00078C21.6008 8.50398 22.004 8.10078 22.5008 8.10078Z" fill="#EF4444"/>
</svg>
