<svg width="27" height="27" viewBox="0 0 27 27" fill="none" xmlns="http://www.w3.org/2000/svg">
<path d="M4.27151 1.58203V5.0625H6.69729V1.58203H4.27151ZM15.9258 1.58203V5.0625H18.3516V1.58203H15.9258ZM2.08829 3.58594C1.95214 3.58871 1.8226 3.64511 1.72781 3.74288C1.63301 3.84064 1.58064 3.97186 1.58206 4.10803V7.80469H21.041V4.10803C21.0437 3.97241 20.9924 3.84129 20.8985 3.74342C20.8046 3.64555 20.6757 3.58891 20.5401 3.58594H19.1953V5.46851C19.1965 5.58224 19.153 5.69187 19.074 5.77376C18.9951 5.85566 18.8872 5.90324 18.7735 5.90625H15.525C15.4091 5.90406 15.2985 5.8574 15.2161 5.77592C15.1336 5.69444 15.0856 5.58438 15.0821 5.46851V3.58594H7.54104V5.46851C7.53777 5.58357 7.49061 5.69303 7.40921 5.77442C7.32782 5.85581 7.21837 5.90298 7.10331 5.90625H3.85489C3.74064 5.90349 3.632 5.85616 3.55219 5.77436C3.47237 5.69256 3.42772 5.5828 3.42776 5.46851V3.58594H2.08829ZM1.58206 8.64844V11.9707H5.64261V8.64844H1.58206ZM6.48636 8.64844V11.9707H10.916V8.64844H6.48636ZM11.7598 8.64844V11.9707H16.1367V8.64844H11.7598ZM16.9805 8.64844V11.9707H18.4412C18.6627 11.9707 18.8895 11.9391 19.1215 11.9391C19.3535 11.9391 19.5803 11.9707 19.8018 11.9707H21.041V8.64844H16.9805ZM1.58206 12.8145V16.1367H5.64261V12.8145H1.58206ZM6.48636 12.8145V16.1367H10.916V12.8145H6.48636ZM11.7598 12.8145V16.1367H12.614C13.2524 14.7241 14.3335 13.5579 15.6938 12.8145H11.7598ZM18.4729 12.8145C15.2983 13.1309 12.8145 15.8309 12.8145 19.0898C12.8145 22.565 15.641 25.3969 19.1162 25.3969C22.5914 25.3969 25.4233 22.565 25.4233 19.0898C25.4233 15.8309 22.9342 13.1309 19.7596 12.8145H18.4729ZM19.155 16.6009C19.2647 16.6041 19.3688 16.65 19.4453 16.7287C19.5217 16.8075 19.5645 16.9129 19.5645 17.0227V19.4801C19.5645 19.592 19.52 19.6993 19.4409 19.7784C19.3618 19.8575 19.2545 19.902 19.1426 19.902C19.0307 19.902 18.9234 19.8575 18.8443 19.7784C18.7652 19.6993 18.7207 19.592 18.7207 19.4801V17.0227C18.7207 16.9662 18.732 16.9104 18.754 16.8584C18.776 16.8064 18.8082 16.7593 18.8487 16.72C18.8892 16.6807 18.9371 16.6499 18.9897 16.6294C19.0424 16.609 19.0985 16.5993 19.155 16.6009ZM1.58206 16.9805V20.1498C1.58064 20.2859 1.63301 20.4172 1.72781 20.5149C1.8226 20.6127 1.95214 20.6691 2.08829 20.6719H5.64261V16.9805H1.58206ZM6.48636 16.9805V20.6719H10.916V16.9805H6.48636ZM11.7598 16.9805V20.6719H12.1448C11.8703 19.4497 11.9212 18.1769 12.2924 16.9805H11.7598ZM19.155 20.3978C19.2647 20.401 19.3688 20.4469 19.4453 20.5256C19.5217 20.6044 19.5645 20.7098 19.5645 20.8196V21.1676C19.5645 21.2795 19.52 21.3868 19.4409 21.4659C19.3618 21.545 19.2545 21.5895 19.1426 21.5895C19.0307 21.5895 18.9234 21.545 18.8443 21.4659C18.7652 21.3868 18.7207 21.2795 18.7207 21.1676V20.8196C18.7207 20.7631 18.732 20.7072 18.754 20.6553C18.776 20.6033 18.8082 20.5562 18.8487 20.5169C18.8892 20.4775 18.9371 20.4467 18.9897 20.4263C19.0424 20.4058 19.0985 20.3961 19.155 20.3978Z" fill="#2D5697"/>
</svg>
