<svg width="20" height="21" viewBox="0 0 20 21" fill="none" xmlns="http://www.w3.org/2000/svg">
<path d="M10.0008 1.30078C4.92459 1.30078 0.800781 5.4246 0.800781 10.5008C0.800781 15.577 4.92459 19.7008 10.0008 19.7008C12.9159 19.7008 15.5149 18.34 17.2008 16.2211V19.3008C17.2 19.3538 17.2098 19.4064 17.2296 19.4556C17.2494 19.5048 17.2787 19.5496 17.3159 19.5873C17.3531 19.6251 17.3975 19.655 17.4464 19.6755C17.4953 19.6959 17.5478 19.7065 17.6008 19.7065C17.6538 19.7065 17.7063 19.6959 17.7552 19.6755C17.8041 19.655 17.8484 19.6251 17.8856 19.5873C17.9229 19.5496 17.9522 19.5048 17.972 19.4556C17.9917 19.4064 18.0015 19.3538 18.0008 19.3008V14.9008H17.3969H17.357H13.6008C13.5478 14.9 13.4952 14.9098 13.446 14.9296C13.3968 14.9494 13.352 14.9787 13.3143 15.0159C13.2765 15.0531 13.2465 15.0975 13.2261 15.1464C13.2056 15.1953 13.1951 15.2478 13.1951 15.3008C13.1951 15.3538 13.2056 15.4063 13.2261 15.4552C13.2465 15.5041 13.2765 15.5484 13.3143 15.5856C13.352 15.6229 13.3968 15.6522 13.446 15.672C13.4952 15.6917 13.5478 15.7015 13.6008 15.7008H16.593C15.0549 17.6485 12.6779 18.9008 10.0008 18.9008C5.35697 18.9008 1.60078 15.1446 1.60078 10.5008C1.60078 5.85697 5.35697 2.10078 10.0008 2.10078C14.6446 2.10078 18.4008 5.85697 18.4008 10.5008C18.4 10.5538 18.4098 10.6064 18.4296 10.6556C18.4494 10.7048 18.4787 10.7496 18.5159 10.7873C18.5531 10.8251 18.5975 10.855 18.6464 10.8755C18.6953 10.8959 18.7478 10.9065 18.8008 10.9065C18.8538 10.9065 18.9063 10.8959 18.9552 10.8755C19.0041 10.855 19.0484 10.8251 19.0856 10.7873C19.1229 10.7496 19.1522 10.7048 19.172 10.6556C19.1917 10.6064 19.2015 10.5538 19.2008 10.5008C19.2008 5.4246 15.077 1.30078 10.0008 1.30078ZM10.0008 2.90078C5.80358 2.90078 2.40078 6.30358 2.40078 10.5008C2.40078 14.698 5.80358 18.1008 10.0008 18.1008C11.756 18.1008 13.3675 17.5 14.6539 16.5008H13.6008C12.938 16.5008 12.4008 15.9636 12.4008 15.3008C12.4008 14.638 12.938 14.1008 13.6008 14.1008H16.6945C17.2721 13.0292 17.6008 11.8036 17.6008 10.5008C17.6008 6.30358 14.198 2.90078 10.0008 2.90078ZM10.0008 4.10078C10.2216 4.10078 10.4008 4.27998 10.4008 4.50078V9.37422C10.74 9.49502 11.0069 9.76158 11.1273 10.1008H14.4008C14.6216 10.1008 14.8008 10.28 14.8008 10.5008C14.8008 10.7216 14.6216 10.9008 14.4008 10.9008H11.1273C10.9621 11.366 10.5224 11.7008 10.0008 11.7008C9.33798 11.7008 8.80078 11.1636 8.80078 10.5008C8.80078 9.97918 9.13558 9.53942 9.60078 9.37422V4.50078C9.60078 4.27998 9.77998 4.10078 10.0008 4.10078Z" fill="#2D5697"/>
</svg>
