<svg width="27" height="27" viewBox="0 0 27 27" fill="none" xmlns="http://www.w3.org/2000/svg">
<path d="M23.625 7.875V7.03125C23.625 5.01525 21.9848 3.375 19.9688 3.375H7.03125C5.01525 3.375 3.375 5.01525 3.375 7.03125V7.875H23.625ZM3.375 9.5625V19.9688C3.375 21.9848 5.01525 23.625 7.03125 23.625H19.9688C21.9848 23.625 23.625 21.9848 23.625 19.9688V9.5625H3.375ZM12.6562 12.0938C12.6562 11.6274 13.0343 11.25 13.5 11.25C13.9657 11.25 14.3438 11.6274 14.3438 12.0938V16.5938C14.3438 17.0601 13.9657 17.4375 13.5 17.4375C13.0343 17.4375 12.6562 17.0601 12.6562 16.5938V12.0938ZM13.5 20.8125C12.8784 20.8125 12.375 20.3091 12.375 19.6875C12.375 19.0659 12.8784 18.5625 13.5 18.5625C14.1216 18.5625 14.625 19.0659 14.625 19.6875C14.625 20.3091 14.1216 20.8125 13.5 20.8125Z" fill="#2D5697"/>
</svg>
