<svg width="45" height="45" viewBox="0 0 45 45" fill="none" xmlns="http://www.w3.org/2000/svg">
<path d="M7.11919 2.63672V8.4375H11.1622V2.63672H7.11919ZM26.543 2.63672V8.4375H30.586V2.63672H26.543ZM3.48048 5.97656C3.25357 5.98119 3.03766 6.07519 2.87968 6.23813C2.72169 6.40106 2.63439 6.61977 2.63677 6.84671V13.0078H35.0684V6.84671C35.0728 6.62069 34.9873 6.40215 34.8308 6.23903C34.6743 6.07591 34.4595 5.98152 34.2334 5.97656H31.9922V9.11419C31.9942 9.30373 31.9216 9.48646 31.7901 9.62294C31.6585 9.75943 31.4786 9.83873 31.2891 9.84375H25.8751C25.6819 9.84011 25.4975 9.76234 25.3601 9.62654C25.2227 9.49074 25.1427 9.3073 25.1368 9.11419V5.97656H12.5684V9.11419C12.563 9.30596 12.4843 9.48838 12.3487 9.62403C12.213 9.75969 12.0306 9.8383 11.8388 9.84375H6.42482C6.2344 9.83915 6.05333 9.76026 5.92031 9.62393C5.78729 9.48761 5.71286 9.30466 5.71294 9.11419V5.97656H3.48048ZM2.63677 14.4141V19.9512H9.40434V14.4141H2.63677ZM10.8106 14.4141V19.9512H18.1934V14.4141H10.8106ZM19.5997 14.4141V19.9512H26.8946V14.4141H19.5997ZM28.3008 14.4141V19.9512H30.7353C31.1045 19.9512 31.4824 19.8985 31.8692 19.8985C32.2559 19.8985 32.6338 19.9512 33.003 19.9512H35.0684V14.4141H28.3008ZM2.63677 21.3574V26.8945H9.40434V21.3574H2.63677ZM10.8106 21.3574V26.8945H18.1934V21.3574H10.8106ZM19.5997 21.3574V26.8945H21.0234C22.0874 24.5402 23.8892 22.5965 26.1563 21.3574H19.5997ZM30.7882 21.3574C25.4972 21.8848 21.3575 26.3848 21.3575 31.8164C21.3575 37.6084 26.0684 42.3281 31.8604 42.3281C37.6524 42.3281 42.3721 37.6084 42.3721 31.8164C42.3721 26.3848 38.2236 21.8848 32.9326 21.3574H30.7882ZM31.9249 27.6682C32.1078 27.6736 32.2814 27.75 32.4088 27.8812C32.5362 28.0125 32.6075 28.1882 32.6075 28.3712V32.4668C32.6075 32.6533 32.5334 32.8322 32.4015 32.964C32.2697 33.0959 32.0908 33.17 31.9043 33.17C31.7179 33.17 31.539 33.0959 31.4072 32.964C31.2753 32.8322 31.2012 32.6533 31.2012 32.4668V28.3712C31.2012 28.2771 31.2201 28.184 31.2567 28.0973C31.2933 28.0106 31.347 27.9322 31.4144 27.8667C31.4819 27.8011 31.5619 27.7498 31.6496 27.7157C31.7373 27.6816 31.8309 27.6655 31.9249 27.6682ZM2.63677 28.3008V33.583C2.63439 33.8099 2.72169 34.0286 2.87968 34.1916C3.03766 34.3545 3.25357 34.4485 3.48048 34.4531H9.40434V28.3008H2.63677ZM10.8106 28.3008V34.4531H18.1934V28.3008H10.8106ZM19.5997 28.3008V34.4531H20.2413C19.7838 32.4161 19.8687 30.2948 20.4873 28.3008H19.5997ZM31.9249 33.9963C32.1078 34.0017 32.2814 34.0781 32.4088 34.2094C32.5362 34.3406 32.6075 34.5164 32.6075 34.6993V35.2793C32.6075 35.4658 32.5334 35.6447 32.4015 35.7765C32.2697 35.9084 32.0908 35.9825 31.9043 35.9825C31.7179 35.9825 31.539 35.9084 31.4072 35.7765C31.2753 35.6447 31.2012 35.4658 31.2012 35.2793V34.6993C31.2012 34.6052 31.2201 34.5121 31.2567 34.4254C31.2933 34.3388 31.347 34.2603 31.4144 34.1948C31.4819 34.1292 31.5619 34.0779 31.6496 34.0438C31.7373 34.0097 31.8309 33.9936 31.9249 33.9963Z" fill="#10B981"/>
</svg>
