<svg width="18" height="20" viewBox="0 0 18 20" fill="none" xmlns="http://www.w3.org/2000/svg">
<path d="M6.00016 4.05473C6.0038 4.20862 6.0681 4.35484 6.17907 4.46154L11.6009 9.88332L6.17907 15.3051C6.12318 15.3595 6.07875 15.4245 6.04841 15.4963C6.01808 15.5682 6.00245 15.6453 6.00244 15.7233C6.00247 15.8394 6.03712 15.9528 6.10194 16.0491C6.16677 16.1453 6.25883 16.2201 6.36637 16.2638C6.4739 16.3074 6.59201 16.318 6.70561 16.2942C6.81921 16.2704 6.92312 16.2133 7.00407 16.1301L12.8384 10.2958C12.9477 10.1864 13.0092 10.038 13.0092 9.88332C13.0092 9.72861 12.9477 9.58024 12.8384 9.47082L7.00407 3.63653C6.92259 3.5518 6.81742 3.49366 6.70234 3.46971C6.58726 3.44577 6.46762 3.45714 6.35911 3.50234C6.2506 3.54755 6.15827 3.62447 6.09422 3.72304C6.03017 3.8216 5.99739 3.93722 6.00016 4.05473Z" fill="#2D5697"/>
</svg>
