<svg width="20" height="21" viewBox="0 0 20 21" fill="none" xmlns="http://www.w3.org/2000/svg">
<g clip-path="url(#clip0_2_7880)">
<path d="M12.3979 2.94858C12.1993 2.94144 11.9978 2.96329 11.7986 3.01603C11.2673 3.15665 10.8298 3.50034 10.5641 3.96909L10.0017 4.98471C9.87669 5.20346 9.95476 5.50058 10.1735 5.62558L12.8768 7.18808C12.9549 7.23496 13.033 7.25034 13.1111 7.25034C13.158 7.25034 13.1891 7.2504 13.2359 7.23478C13.3609 7.20353 13.4548 7.12534 13.5173 7.01596L14.0953 6.00034C14.3609 5.53159 14.4392 4.98496 14.2986 4.45371C14.1579 3.92246 13.8143 3.4849 13.3455 3.21927C13.0525 3.05326 12.729 2.96048 12.3979 2.94858ZM9.39195 6.4578C9.24058 6.46939 9.09532 6.55118 9.01719 6.6879L4.29857 14.8755C3.76732 15.7817 3.47056 16.7974 3.40806 17.8286L3.28294 19.8443C3.26732 20.0162 3.36107 20.1879 3.51732 20.2817C3.59544 20.3285 3.67357 20.3442 3.75169 20.3442C3.84544 20.3442 3.93907 20.313 4.01719 20.2661L5.70482 19.1568C6.56419 18.5786 7.29857 17.813 7.81419 16.9067L12.5487 8.71915C12.6737 8.5004 12.5953 8.20359 12.3766 8.07859C12.1578 7.95359 11.861 8.03165 11.736 8.2504L7.00181 16.438C6.54869 17.2036 5.92351 17.8755 5.17351 18.3755L4.26744 18.9691L4.32969 17.8912C4.37657 17.0006 4.64226 16.1255 5.09538 15.3442L9.82988 7.15665C9.95488 6.9379 9.87681 6.64109 9.65806 6.51609C9.57603 6.46921 9.48277 6.45084 9.39195 6.4578ZM7.65794 19.4067C7.39232 19.4067 7.18919 19.6098 7.18919 19.8755C7.18919 20.1411 7.39232 20.3442 7.65794 20.3442H13.9079C14.1736 20.3442 14.3767 20.1411 14.3767 19.8755C14.3767 19.6098 14.1736 19.4067 13.9079 19.4067H7.65794ZM16.2517 19.4067C16.1274 19.4067 16.0081 19.4561 15.9202 19.544C15.8323 19.6319 15.7829 19.7511 15.7829 19.8755C15.7829 19.9998 15.8323 20.119 15.9202 20.2069C16.0081 20.2948 16.1274 20.3442 16.2517 20.3442C16.376 20.3442 16.4952 20.2948 16.5831 20.2069C16.6711 20.119 16.7204 19.9998 16.7204 19.8755C16.7204 19.7511 16.6711 19.6319 16.5831 19.544C16.4952 19.4561 16.376 19.4067 16.2517 19.4067Z" fill="white"/>
</g>
<defs>
<clipPath id="clip0_2_7880">
<rect width="20" height="20" fill="white" transform="translate(0 0.5)"/>
</clipPath>
</defs>
</svg>
