<svg width="27" height="27" viewBox="0 0 27 27" fill="none" xmlns="http://www.w3.org/2000/svg">
<path d="M13.5 5.625C12.6049 5.625 11.7464 5.98058 11.1135 6.61351C10.4806 7.24645 10.125 8.10489 10.125 9C10.125 9.89511 10.4806 10.7536 11.1135 11.3865C11.7464 12.0194 12.6049 12.375 13.5 12.375C14.3951 12.375 15.2536 12.0194 15.8865 11.3865C16.5194 10.7536 16.875 9.89511 16.875 9C16.875 8.10489 16.5194 7.24645 15.8865 6.61351C15.2536 5.98058 14.3951 5.625 13.5 5.625ZM5.625 7.875C5.02826 7.875 4.45597 8.11205 4.03401 8.53401C3.61205 8.95597 3.375 9.52826 3.375 10.125C3.375 10.7217 3.61205 11.294 4.03401 11.716C4.45597 12.1379 5.02826 12.375 5.625 12.375C6.22174 12.375 6.79403 12.1379 7.21599 11.716C7.63795 11.294 7.875 10.7217 7.875 10.125C7.875 9.52826 7.63795 8.95597 7.21599 8.53401C6.79403 8.11205 6.22174 7.875 5.625 7.875ZM21.375 7.875C20.7783 7.875 20.206 8.11205 19.784 8.53401C19.3621 8.95597 19.125 9.52826 19.125 10.125C19.125 10.7217 19.3621 11.294 19.784 11.716C20.206 12.1379 20.7783 12.375 21.375 12.375C21.9717 12.375 22.544 12.1379 22.966 11.716C23.3879 11.294 23.625 10.7217 23.625 10.125C23.625 9.52826 23.3879 8.95597 22.966 8.53401C22.544 8.11205 21.9717 7.875 21.375 7.875ZM13.5 14.625C9.5265 14.625 6.75 16.1131 6.75 18.2439V20.25C6.75 20.871 7.254 21.375 7.875 21.375H19.125C19.746 21.375 20.25 20.871 20.25 20.25V18.2439C20.25 16.1131 17.4735 14.625 13.5 14.625ZM5.15259 14.6382C2.91098 14.76 1.125 15.7427 1.125 17.1189V18C1.125 18.621 1.629 19.125 2.25 19.125H4.5V18.2439C4.5 16.832 5.09286 15.6121 6.14136 14.6514C6.13798 14.6424 6.14034 14.6494 6.13696 14.6404C5.80199 14.6213 5.47282 14.6208 5.15259 14.6382ZM21.8474 14.6382C21.5272 14.6208 21.198 14.6213 20.863 14.6404C20.8597 14.6494 20.862 14.6424 20.8586 14.6514C21.9071 15.6121 22.5 16.8331 22.5 18.2439V19.125H24.75C25.371 19.125 25.875 18.621 25.875 18V17.1189C25.875 15.7427 24.089 14.76 21.8474 14.6382Z" fill="#16A34A"/>
</svg>
