<svg width="36" height="36" viewBox="0 0 36 36" fill="none" xmlns="http://www.w3.org/2000/svg">
<path d="M4.9375 21.8223C4.9375 22.2949 5.00717 22.7675 5.1748 23.3291L5.22266 23.4893C5.93372 25.6107 7.89249 27.0352 10.0938 27.0352H30.0547L28.8164 31.0186C28.4656 32.3727 27.214 33.2909 25.8447 33.291C25.5775 33.2908 25.3113 33.2565 25.0527 33.1885L3.79004 27.4316C2.14984 26.9742 1.17257 25.2573 1.60156 23.6016L4.9375 12.3438V21.8223ZM31.0654 2.70898C32.9603 2.70906 34.5029 4.26892 34.5029 6.18457V21.4766C34.5028 23.3922 32.9602 24.9521 31.0654 24.9521H10.4395C8.54509 24.952 7.00207 23.3921 7.00195 21.4766V6.18457C7.00197 4.26899 8.54503 2.70916 10.4395 2.70898H31.0654ZM10.4395 5.48926C10.0602 5.48943 9.75195 5.80086 9.75195 6.18457V19.3066L13.5479 15.4707C14.487 14.5203 16.0167 14.5203 16.957 15.4707L18.6211 17.1484L23.7285 10.9512C24.185 10.398 24.8533 10.0783 25.5654 10.0742C26.2816 10.0907 26.9484 10.3827 27.4092 10.9287L31.7529 16.0537V6.18457C31.7529 5.80081 31.4451 5.48933 31.0654 5.48926H10.4395ZM13.875 6.87793C15.3916 6.878 16.6249 8.12494 16.625 9.6582C16.625 11.1915 15.3917 12.4384 13.875 12.4385C12.3583 12.4385 11.125 11.1915 11.125 9.6582C11.1251 8.12496 12.3583 6.87793 13.875 6.87793Z" fill="#A3A3A3"/>
</svg>
