<svg width="27" height="27" viewBox="0 0 27 27" fill="none" xmlns="http://www.w3.org/2000/svg">
<path d="M7.18704 2.68751C7.14344 2.68846 7.09996 2.69257 7.05696 2.69982H5.4011C5.28184 2.69813 5.16343 2.72016 5.05276 2.76464C4.94209 2.80911 4.84136 2.87513 4.75643 2.95887C4.6715 3.04261 4.60405 3.1424 4.55802 3.25243C4.51199 3.36246 4.48828 3.48054 4.48828 3.59982C4.48828 3.71909 4.51199 3.83717 4.55802 3.9472C4.60405 4.05723 4.6715 4.15702 4.75643 4.24076C4.84136 4.3245 4.94209 4.39052 5.05276 4.435C5.16343 4.47947 5.28184 4.5015 5.4011 4.49982H6.3011V6.29982C6.3011 10.4505 9.10206 12.6479 10.3195 13.4998C9.10206 14.3518 6.3011 16.5491 6.3011 20.6998V22.4998H5.4011C5.28184 22.4981 5.16343 22.5202 5.05276 22.5646C4.94209 22.6091 4.84136 22.6751 4.75643 22.7589C4.6715 22.8426 4.60405 22.9424 4.55802 23.0524C4.51199 23.1625 4.48828 23.2805 4.48828 23.3998C4.48828 23.5191 4.51199 23.6372 4.55802 23.7472C4.60405 23.8572 4.6715 23.957 4.75643 24.0408C4.84136 24.1245 4.94209 24.1905 5.05276 24.235C5.16343 24.2795 5.28184 24.3015 5.4011 24.2998H7.04993C7.14712 24.3159 7.24629 24.3159 7.34348 24.2998H19.6499C19.7471 24.3159 19.8463 24.3159 19.9435 24.2998H21.6011C21.7204 24.3015 21.8388 24.2795 21.9494 24.235C22.0601 24.1905 22.1608 24.1245 22.2458 24.0408C22.3307 23.957 22.3981 23.8572 22.4442 23.7472C22.4902 23.6372 22.5139 23.5191 22.5139 23.3998C22.5139 23.2805 22.4902 23.1625 22.4442 23.0524C22.3981 22.9424 22.3307 22.8426 22.2458 22.7589C22.1608 22.6751 22.0601 22.6091 21.9494 22.5646C21.8388 22.5202 21.7204 22.4981 21.6011 22.4998H20.7011V20.6998C20.7011 16.5491 17.9001 14.3518 16.6827 13.4998C17.9001 12.6479 20.7011 10.4505 20.7011 6.29982V4.49982H21.6011C21.7204 4.5015 21.8388 4.47947 21.9494 4.435C22.0601 4.39052 22.1608 4.3245 22.2458 4.24076C22.3307 4.15702 22.3981 4.05723 22.4442 3.9472C22.4902 3.83717 22.5139 3.71909 22.5139 3.59982C22.5139 3.48054 22.4902 3.36246 22.4442 3.25243C22.3981 3.1424 22.3307 3.04261 22.2458 2.95887C22.1608 2.87513 22.0601 2.80911 21.9494 2.76464C21.8388 2.72016 21.7204 2.69813 21.6011 2.69982H19.94C19.8894 2.69137 19.8383 2.68725 19.787 2.68751C19.7434 2.68846 19.7 2.69257 19.657 2.69982H7.33997C7.28943 2.69137 7.23827 2.68725 7.18704 2.68751ZM8.18196 7.19982H18.8202C18.2732 10.5825 14.8388 12.7281 14.8388 12.7281C14.7056 12.8081 14.5953 12.9212 14.5188 13.0565C14.4423 13.1917 14.402 13.3444 14.402 13.4998C14.402 13.6552 14.4423 13.8079 14.5188 13.9432C14.5953 14.0784 14.7056 14.1915 14.8388 14.2715C14.8388 14.2715 18.2732 16.4171 18.8202 19.7998H16.9728C16.5713 18.2498 15.1766 17.0998 13.5011 17.0998C11.8256 17.0998 10.4309 18.2498 10.0294 19.7998H8.18196C8.72904 16.4171 12.1634 14.2715 12.1634 14.2715C12.2966 14.1915 12.4069 14.0784 12.4834 13.9432C12.5599 13.8079 12.6002 13.6552 12.6002 13.4998C12.6002 13.3444 12.5599 13.1917 12.4834 13.0565C12.4069 12.9212 12.2966 12.8081 12.1634 12.7281C12.1634 12.7281 8.72904 10.5825 8.18196 7.19982ZM11.2511 8.99982C11.2511 10.2427 12.2582 11.2498 13.5011 11.2498C14.744 11.2498 15.7511 10.2427 15.7511 8.99982H11.2511Z" fill="#F97316" fill-opacity="0.85"/>
</svg>
