<svg width="122" height="122" viewBox="0 0 122 122" fill="none" xmlns="http://www.w3.org/2000/svg">
<g filter="url(#filter0_d_2_7764)">
<rect x="4" y="1" width="114" height="114" rx="57" fill="#D9D9D9" shape-rendering="crispEdges"/>
<rect x="5.5" y="2.5" width="111" height="111" rx="55.5" stroke="white" stroke-width="3" shape-rendering="crispEdges"/>
<g filter="url(#filter1_d_2_7764)">
<rect x="83" y="80.998" width="31" height="31.0016" rx="15.5" fill="white"/>
<path d="M101 88.998L95.9997 89.0029L94.4714 90.6663H91.8346C90.918 90.6663 90.168 91.4163 90.168 92.333V102.333C90.168 103.25 90.918 104 91.8346 104H105.168C106.085 104 106.835 103.25 106.835 102.333V92.333C106.835 91.4163 106.085 90.6663 105.168 90.6663H102.538L101 88.998ZM100.269 90.6647L101.807 92.333H105.168V102.333H91.8346V92.333H95.2038L96.7337 90.668L100.269 90.6647ZM98.5013 93.1663C96.2005 93.1663 94.3346 95.0322 94.3346 97.333C94.3346 99.6338 96.2005 101.5 98.5013 101.5C100.802 101.5 102.668 99.6338 102.668 97.333C102.668 95.0322 100.802 93.1663 98.5013 93.1663ZM98.5013 94.833C99.8821 94.833 101.001 95.9522 101.001 97.333C101.001 98.7138 99.8821 99.833 98.5013 99.833C97.1205 99.833 96.0013 98.7138 96.0013 97.333C96.0013 95.9522 97.1205 94.833 98.5013 94.833Z" fill="black"/>
</g>
</g>
<defs>
<filter id="filter0_d_2_7764" x="0" y="0" width="122" height="122" filterUnits="userSpaceOnUse" color-interpolation-filters="sRGB">
<feFlood flood-opacity="0" result="BackgroundImageFix"/>
<feColorMatrix in="SourceAlpha" type="matrix" values="0 0 0 0 0 0 0 0 0 0 0 0 0 0 0 0 0 0 127 0" result="hardAlpha"/>
<feOffset dy="3"/>
<feGaussianBlur stdDeviation="2"/>
<feComposite in2="hardAlpha" operator="out"/>
<feColorMatrix type="matrix" values="0 0 0 0 0 0 0 0 0 0 0 0 0 0 0 0 0 0 0.2 0"/>
<feBlend mode="normal" in2="BackgroundImageFix" result="effect1_dropShadow_2_7764"/>
<feBlend mode="normal" in="SourceGraphic" in2="effect1_dropShadow_2_7764" result="shape"/>
</filter>
<filter id="filter1_d_2_7764" x="79" y="77.998" width="39" height="39.002" filterUnits="userSpaceOnUse" color-interpolation-filters="sRGB">
<feFlood flood-opacity="0" result="BackgroundImageFix"/>
<feColorMatrix in="SourceAlpha" type="matrix" values="0 0 0 0 0 0 0 0 0 0 0 0 0 0 0 0 0 0 127 0" result="hardAlpha"/>
<feOffset dy="1"/>
<feGaussianBlur stdDeviation="2"/>
<feComposite in2="hardAlpha" operator="out"/>
<feColorMatrix type="matrix" values="0 0 0 0 0 0 0 0 0 0 0 0 0 0 0 0 0 0 0.25 0"/>
<feBlend mode="normal" in2="BackgroundImageFix" result="effect1_dropShadow_2_7764"/>
<feBlend mode="normal" in="SourceGraphic" in2="effect1_dropShadow_2_7764" result="shape"/>
</filter>
</defs>
</svg>
