<svg width="17" height="11" viewBox="0 0 17 11" fill="none" xmlns="http://www.w3.org/2000/svg">
<path d="M16.2248 0.608984C16.2193 0.470067 16.1607 0.338564 16.061 0.241604C15.9614 0.144644 15.8284 0.0896227 15.6893 0.0878906H11.1325C10.9895 0.0878906 10.8524 0.144684 10.7513 0.245778C10.6502 0.346872 10.5934 0.483985 10.5934 0.626953C10.5934 0.769921 10.6502 0.907034 10.7513 1.00813C10.8524 1.10922 10.9895 1.16602 11.1325 1.16602H14.525L10.0328 6.45961L7.34825 3.26477C7.29726 3.20499 7.23389 3.157 7.16254 3.12412C7.09118 3.09123 7.01354 3.07423 6.93497 3.0743C6.85604 3.07418 6.77806 3.09152 6.70661 3.12507C6.63516 3.15862 6.57201 3.20755 6.52169 3.26836L0.901062 10.0282C0.818053 10.1387 0.780643 10.2768 0.796557 10.4141C0.812471 10.5514 0.880495 10.6773 0.98658 10.7658C1.09266 10.8544 1.22871 10.8988 1.36661 10.89C1.50452 10.8811 1.63375 10.8196 1.72762 10.7182L6.93856 4.4543L9.61591 7.65633C9.66685 7.7162 9.73019 7.76428 9.80155 7.79726C9.87291 7.83023 9.95058 7.84731 10.0292 7.84731C10.1078 7.84731 10.1855 7.83023 10.2568 7.79726C10.3282 7.76428 10.3915 7.7162 10.4425 7.65633L15.1503 2.0968V5.18383C15.1503 5.3268 15.2071 5.46391 15.3082 5.565C15.4093 5.6661 15.5464 5.72289 15.6893 5.72289C15.8323 5.72289 15.9694 5.6661 16.0705 5.565C16.1716 5.46391 16.2284 5.3268 16.2284 5.18383C16.2248 5.15867 16.232 0.630546 16.2248 0.608984Z" fill="#006CBD"/>
</svg>
