<svg width="36" height="36" viewBox="0 0 36 36" fill="none" xmlns="http://www.w3.org/2000/svg">
<path d="M29.6455 4.5C28.9435 4.5 28.3023 4.89839 27.9873 5.52539L27 7.5L17.4082 11.6104C16.8562 11.8474 16.5 12.3873 16.5 12.9873V23.0098C16.5 23.6098 16.8562 24.1541 17.4082 24.3896L27 28.5L27.9873 30.4746C28.3023 31.1016 28.9435 31.5 29.6455 31.5C30.67 31.5 31.5 30.67 31.5 29.6455V20.5928C31.9553 20.3299 32.3335 19.952 32.5968 19.497C32.86 19.0419 32.9991 18.5257 33 18C32.9996 17.4738 32.8608 16.957 32.5975 16.5013C32.3342 16.0457 31.9557 15.6674 31.5 15.4043V6.35449C31.5 5.32999 30.67 4.5 29.6455 4.5ZM7.5 12C5.85 12 4.5 13.35 4.5 15V21C4.5 22.65 5.85 24 7.5 24H10.5V30C10.5 30.828 11.172 31.5 12 31.5C12.828 31.5 13.5 30.828 13.5 30V21V13.5C13.5 12.672 12.828 12 12 12H7.5Z" fill="white"/>
</svg>
