<svg width="36" height="36" viewBox="0 0 36 36" fill="none" xmlns="http://www.w3.org/2000/svg">
<path d="M14.5794 1.43945C12.1026 1.43945 10.2557 2.15302 9.15126 3.62758C7.8027 5.4283 7.57441 8.24113 8.40313 11.9765C8.08633 12.3653 7.85672 12.9692 7.95032 13.754C8.13752 15.3164 8.73428 15.9571 9.24548 16.2163C9.48308 17.4259 10.1444 18.7702 10.7924 19.4254C10.7924 19.4254 10.7994 21.2395 10.7094 22.0495C10.2774 23.0431 8.86961 23.4641 7.20641 24.1265C4.42721 25.2353 0.978575 26.6103 0.719375 30.9159L0.675781 31.6795H22.2041C23.3201 34.2139 25.8618 35.9995 28.7994 35.9995C32.7594 35.9995 35.9994 32.7595 35.9994 28.7995C35.9994 25.1923 33.3132 22.1822 29.8428 21.6782C29.8428 21.6782 29.8219 21.6714 29.8147 21.6642C28.6627 21.153 27.0318 19.9111 26.7294 19.3495C26.6394 18.7195 26.6464 17.1852 26.6464 17.1852C27.244 16.638 28.0503 15.5161 28.3311 14.3713C28.7991 14.1193 29.3327 13.5213 29.4983 12.1101C29.5847 11.3973 29.3827 10.8432 29.0947 10.476C29.4547 8.87762 29.9546 5.81927 28.7277 4.01711C28.2244 3.27767 27.4896 2.8151 26.5536 2.6207C25.9344 1.8575 24.7741 1.43945 23.2405 1.43945C22.1029 1.43945 21.1461 1.63408 20.3253 2.03008C20.9445 2.40448 21.4771 2.9087 21.8947 3.5207C23.1475 5.34231 23.3999 8.02059 22.6583 11.6854C22.9895 12.3478 23.1189 13.1107 23.0253 13.9171C22.8237 15.5875 22.2049 16.5384 21.5713 17.0784C21.2689 18.1584 20.7426 19.2595 20.1594 20.0371C20.1594 20.5627 20.1587 21.0234 20.1875 21.5418C20.5763 21.9594 21.8665 22.4638 22.8313 22.8454C23.2273 22.9966 24.1053 23.3559 24.1053 23.3559C23.7165 23.6871 23.3631 24.0691 23.0535 24.4795C22.8015 24.3787 22.5572 24.2778 22.3124 24.1842C20.6492 23.5362 19.2414 23.0359 18.8094 22.0495C18.7194 21.2395 18.7264 19.5042 18.7264 19.5042C19.3744 18.8418 20.051 17.4305 20.2958 16.2065C20.807 15.9473 21.4052 15.3065 21.5924 13.7441C21.686 12.9521 21.4479 12.347 21.1311 11.9582C21.5055 10.2734 22.2112 6.52952 20.7064 4.33352C20.2744 3.70712 19.7061 3.25447 19.0077 2.97367C18.8925 2.92327 18.3809 2.77185 18.2441 2.74305C17.5745 1.90065 16.293 1.43945 14.5794 1.43945ZM28.7994 23.0395C31.9674 23.0395 34.5594 25.6315 34.5594 28.7995C34.5594 31.9675 31.9674 34.5595 28.7994 34.5595C25.6314 34.5595 23.0394 31.9675 23.0394 28.7995C23.0394 25.6315 25.6314 23.0395 28.7994 23.0395ZM28.7994 24.4795C28.3674 24.4795 28.0794 24.7677 28.0794 25.1277V28.0795H25.1994C24.9834 28.0795 24.8037 28.1518 24.6777 28.2778C24.6147 28.3408 24.5652 28.4164 24.5314 28.5042C24.4977 28.5919 24.4794 28.6915 24.4794 28.7995C24.4794 29.0155 24.5517 29.1952 24.6777 29.3212C24.7407 29.3842 24.8163 29.4337 24.9041 29.4674C24.9918 29.5012 25.0914 29.5195 25.1994 29.5195H28.0794V32.3995C28.0794 32.8315 28.3674 33.1195 28.7994 33.1195C29.2314 33.1195 29.5194 32.8315 29.5194 32.3995V29.5195H32.3994C32.8314 29.5195 33.1194 29.2315 33.1194 28.7995C33.1194 28.3675 32.8311 28.0795 32.4711 28.0795H29.5194V25.1995C29.5194 24.7675 29.2314 24.4795 28.7994 24.4795Z" fill="white"/>
</svg>
