<svg width="35" height="36" viewBox="0 0 35 36" fill="none" xmlns="http://www.w3.org/2000/svg">
<path d="M12.1523 5.84766C9.73589 5.84766 7.77734 7.8062 7.77734 10.2227V25.7782C7.77734 28.1947 9.73589 30.1532 12.1523 30.1532H17.9164L27.2218 20.4538V15.5699H20.4162C18.8053 15.5699 17.4996 14.2642 17.4996 12.6532V5.84766H12.1523ZM19.444 6.01476V12.6532C19.444 13.1904 19.8796 13.6254 20.4162 13.6254H27.0547L19.444 6.01476ZM28.3317 22.1172C28.168 22.1287 28.002 22.2029 27.8712 22.3337L27.3224 22.8758L29.0884 24.6493L29.6267 24.0977C29.8955 23.8148 29.9164 23.4247 29.6476 23.1559L28.776 22.2776C28.6557 22.1573 28.4953 22.1057 28.3317 22.1172ZM26.8031 23.3961L21.0248 29.181L20.7314 30.9261C20.6605 31.0889 20.8444 31.2727 21.0068 31.209L22.8012 30.9441L28.5804 25.1658L26.8031 23.3961Z" fill="white"/>
</svg>
