<svg width="18" height="18" viewBox="0 0 18 18" fill="none" xmlns="http://www.w3.org/2000/svg">
<g clip-path="url(#clip0_2_6836)">
<path d="M9 0C4.03079 0 0 4.03079 0 9C0 13.9692 4.03079 18 9 18C13.9692 18 18 13.9692 18 9C18 4.03079 13.9692 0 9 0ZM13.061 12.0869L12.0841 13.061C11.9058 13.2393 11.6149 13.2393 11.4366 13.061L9 10.6244L6.56341 13.061C6.38506 13.2393 6.09421 13.2393 5.91585 13.0582L4.93902 12.0869C4.76341 11.9058 4.76341 11.6177 4.93902 11.4366L7.37561 9L4.94177 6.56616C4.76341 6.38506 4.76341 6.09421 4.94177 5.91585L5.91585 4.94177C6.09421 4.76067 6.3878 4.76067 6.56616 4.94177L9 7.37561L11.4366 4.94177C11.6149 4.76067 11.9085 4.76067 12.0841 4.94177L13.061 5.91311C13.2393 6.09421 13.2393 6.38506 13.061 6.56616L10.6244 9L13.061 11.4366C13.2366 11.6177 13.2366 11.9058 13.061 12.0869Z" fill="#EF4444"/>
</g>
<defs>
<clipPath id="clip0_2_6836">
<rect width="18" height="18" fill="white"/>
</clipPath>
</defs>
</svg>
