<svg width="20" height="20" viewBox="0 0 20 20" fill="none" xmlns="http://www.w3.org/2000/svg">
<path d="M10.0221 1.66658C9.19439 1.6568 8.36296 1.77444 7.56726 2.0096C6.74228 2.26191 5.96211 2.64387 5.24976 3.13142L4.36841 1.91865L2.55139 6.32906L7.30725 5.96345L6.34839 4.64387C6.88705 4.26628 7.47946 3.96321 8.10742 3.75948C8.81055 3.5376 9.55125 3.43479 10.2919 3.45979C11.7762 3.51292 13.2388 4.08767 14.3513 5.08455C15.4732 6.07205 16.2392 7.46309 16.4705 8.94746C16.7048 10.4318 16.4105 12.0067 15.6355 13.3035C14.8699 14.6067 13.6292 15.6285 12.198 16.1441C11.4855 16.4035 10.7266 16.5347 9.96411 16.5378C9.20474 16.5347 8.43555 16.4095 7.7168 16.1533C6.27617 15.647 5.02659 14.6162 4.23596 13.2974C3.64534 12.3162 3.31995 11.1814 3.2887 10.0345L2.02344 10.1315C2.02969 10.5534 2.07349 10.9787 2.15161 11.3944C2.31724 12.2975 2.63882 13.1689 3.10132 13.9658C4.02319 15.5564 5.5075 16.8189 7.245 17.4564C8.11062 17.7783 9.02935 17.9443 9.95435 17.9599C10.8793 17.9693 11.8075 17.8192 12.6857 17.5192C14.4388 16.9099 15.9736 15.6847 16.9392 14.0878C17.9173 12.4972 18.3105 10.5693 18.0574 8.71309C17.798 6.85684 16.8796 5.10025 15.489 3.8315C14.1109 2.54712 12.2611 1.77818 10.3767 1.67818C10.2587 1.67154 10.1403 1.66798 10.0221 1.66658Z" fill="#10B981"/>
</svg>
