<svg width="20" height="21" viewBox="0 0 20 21" fill="none" xmlns="http://www.w3.org/2000/svg">
<path d="M6.00019 3.68175C6.00434 3.8576 6.07782 4.02468 6.20461 4.14659L12.3999 10.3419L6.20461 16.5372C6.14075 16.5993 6.08999 16.6736 6.05532 16.7557C6.02066 16.8378 6.0028 16.926 6.00279 17.0151C6.00282 17.1477 6.04241 17.2773 6.11649 17.3873C6.19056 17.4973 6.29576 17.5827 6.41864 17.6326C6.54151 17.6825 6.67648 17.6947 6.80628 17.6675C6.93608 17.6403 7.05482 17.575 7.14732 17.4799L13.814 10.8133C13.939 10.6882 14.0092 10.5187 14.0092 10.3419C14.0092 10.1651 13.939 9.99558 13.814 9.87055L7.14732 3.20389C7.05422 3.10707 6.93405 3.04063 6.80254 3.01327C6.67104 2.98591 6.53434 2.9989 6.41035 3.05055C6.28636 3.1022 6.18086 3.1901 6.10767 3.30273C6.03448 3.41536 5.99702 3.54747 6.00019 3.68175Z" fill="#EF4444" fill-opacity="0.51"/>
</svg>
