<svg width="38" height="38" viewBox="0 0 38 38" fill="none" xmlns="http://www.w3.org/2000/svg">
<path d="M36.5655 15.5653C37.3946 15.7078 38 16.4264 38 17.2675V20.7325C38 21.5736 37.3946 22.2922 36.5655 22.4347L33.5739 22.9494C33.2327 24.2112 32.737 25.4073 32.0996 26.5154L33.8494 28.9923C34.3347 29.6789 34.2544 30.6159 33.6602 31.2101L31.2101 33.6602C30.615 34.2553 29.6789 34.3347 28.9923 33.8494L26.5154 32.1005C25.4073 32.7379 24.2112 33.2327 22.9494 33.5747L22.4347 36.5664C22.2922 37.3946 21.5736 38 20.7325 38H17.2675C16.4264 38 15.7078 37.3946 15.5653 36.5655L15.0506 33.5739C13.7888 33.2327 12.5927 32.737 11.4846 32.0996L9.00773 33.8485C8.32114 34.3339 7.38409 34.2535 6.78991 33.6594L4.33977 31.2092C3.74559 30.6142 3.66527 29.678 4.15064 28.9914L5.90036 26.5145C5.263 25.4065 4.76727 24.2103 4.42614 22.9485L1.4345 22.4338C0.605409 22.2922 0 21.5736 0 20.7325V17.2675C0 16.4264 0.605409 15.7078 1.4345 15.5653L4.42614 15.0506C4.76727 13.7888 5.263 12.5927 5.90036 11.4846L4.15064 9.00773C3.66527 8.32114 3.74559 7.38409 4.33977 6.78991L6.78991 4.33977C7.38495 3.74559 8.32114 3.66527 9.00773 4.15064L11.4846 5.90036C12.5927 5.263 13.7888 4.76814 15.0506 4.42614L15.5653 1.4345C15.7078 0.605409 16.4264 0 17.2675 0H20.7325C21.5736 0 22.2922 0.605409 22.4347 1.4345L22.9494 4.42614C24.2112 4.76727 25.4073 5.263 26.5154 5.90036L28.9923 4.15064C29.6789 3.66527 30.6159 3.74559 31.2101 4.33977L33.6602 6.78991C34.2544 7.38409 34.3347 8.32114 33.8494 9.00773L32.0996 11.4846C32.737 12.5927 33.2327 13.7888 33.5739 15.0506L36.5655 15.5653ZM19 25.9091C22.8155 25.9091 25.9091 22.8155 25.9091 19C25.9091 15.1845 22.8155 12.0909 19 12.0909C15.1845 12.0909 12.0909 15.1845 12.0909 19C12.0909 22.8155 15.1845 25.9091 19 25.9091Z" fill="#473F47"/>
</svg>
