<svg width="18" height="18" viewBox="0 0 18 18" fill="none" xmlns="http://www.w3.org/2000/svg">
<g clip-path="url(#clip0_2_5005)">
<path d="M0.651871 2.52059C0.253902 2.53887 -0.0526605 2.87637 -0.0343794 3.27434C-0.0160981 3.6723 0.321402 3.97887 0.719371 3.96059H8.99937C9.25953 3.9648 9.5 3.8284 9.63078 3.6034C9.76296 3.3798 9.76296 3.10137 9.63078 2.87777C9.5 2.65277 9.25953 2.51637 8.99937 2.52059H0.719371C0.696871 2.51918 0.674371 2.51918 0.651871 2.52059ZM14.3206 2.86934C13.9494 2.91012 13.6709 3.22793 13.6794 3.60059V12.4881L12.0706 10.8793C11.9356 10.7373 11.7486 10.6557 11.5531 10.6543C11.2592 10.6515 10.992 10.8287 10.8809 11.1015C10.7698 11.3743 10.8359 11.6865 11.0469 11.8918L14.3994 15.2443L17.7519 11.8918C17.9389 11.7104 18.0134 11.4418 17.9459 11.1901C17.8784 10.9384 17.6802 10.7429 17.4284 10.6782C17.1753 10.6136 16.9081 10.6909 16.7281 10.8793L15.1194 12.4881V3.60059C15.1222 3.40512 15.0462 3.21809 14.9084 3.08027C14.7706 2.94246 14.5836 2.86652 14.3881 2.86934C14.3656 2.86793 14.3431 2.86793 14.3206 2.86934ZM0.651871 5.40059C0.253902 5.41887 -0.0526605 5.75637 -0.0343794 6.15434C-0.0160981 6.5523 0.321402 6.85887 0.719371 6.84059H6.47937C6.73953 6.8448 6.98 6.7084 7.11078 6.4834C7.24296 6.2598 7.24296 5.98137 7.11078 5.75777C6.98 5.53277 6.73953 5.39637 6.47937 5.40059H0.719371C0.696871 5.39918 0.674371 5.39918 0.651871 5.40059ZM0.651871 8.28059C0.253902 8.29887 -0.0526605 8.63637 -0.0343794 9.03434C-0.0160981 9.4323 0.321402 9.73887 0.719371 9.72059H5.03937C5.29953 9.7248 5.54 9.5884 5.67078 9.3634C5.80296 9.1398 5.80296 8.86137 5.67078 8.63777C5.54 8.41277 5.29953 8.27637 5.03937 8.28059H0.719371C0.696871 8.27918 0.674371 8.27918 0.651871 8.28059ZM0.651871 11.1606C0.253902 11.1789 -0.0526605 11.5164 -0.0343794 11.9143C-0.0160981 12.3123 0.321402 12.6189 0.719371 12.6006H3.59937C3.85953 12.6048 4.1 12.4684 4.23078 12.2434C4.36296 12.0198 4.36296 11.7414 4.23078 11.5178C4.1 11.2928 3.85953 11.1564 3.59937 11.1606H0.719371C0.696871 11.1592 0.674371 11.1592 0.651871 11.1606ZM0.651871 14.0406C0.253902 14.0589 -0.0526605 14.3964 -0.0343794 14.7943C-0.0160981 15.1923 0.321402 15.4989 0.719371 15.4806H2.15937C2.41953 15.4848 2.66 15.3484 2.79078 15.1234C2.92296 14.8998 2.92296 14.6214 2.79078 14.3978C2.66 14.1728 2.41953 14.0364 2.15937 14.0406H0.719371C0.696871 14.0392 0.674371 14.0392 0.651871 14.0406Z" fill="white"/>
</g>
<defs>
<clipPath id="clip0_2_5005">
<rect width="18" height="18" fill="white"/>
</clipPath>
</defs>
</svg>
