<svg width="45" height="45" viewBox="0 0 45 45" fill="none" xmlns="http://www.w3.org/2000/svg">
<g clip-path="url(#clip0_57_3320)">
<g clip-path="url(#clip1_57_3320)">
<path d="M0.87999 1.79692C0.750612 1.79813 0.623015 1.82721 0.505894 1.88219C0.388772 1.93717 0.284881 2.01675 0.201299 2.11551C0.117717 2.21428 0.0564101 2.3299 0.0215558 2.4545C-0.0132984 2.5791 -0.0208805 2.70975 -0.000673673 2.83755V42.3057C-0.000673673 42.8025 0.402526 43.2057 0.899326 43.2057H16.1993C16.6961 43.2057 17.0993 42.8025 17.0993 42.3057V16.8192L18.3368 17.8088C18.4292 17.8827 18.5351 17.9377 18.6487 17.9707C18.7623 18.0036 18.8813 18.0139 18.9988 18.0008C19.1164 17.9878 19.2302 17.9517 19.3338 17.8947C19.4374 17.8376 19.5288 17.7607 19.6026 17.6684C19.6765 17.576 19.7315 17.47 19.7644 17.3564C19.7973 17.2428 19.8075 17.1238 19.7944 17.0063C19.7814 16.8888 19.7453 16.7749 19.6882 16.6714C19.6311 16.5678 19.5542 16.4764 19.4618 16.4026L1.46183 2.00259C1.29818 1.86761 1.09211 1.79477 0.87999 1.79692ZM9.89933 3.60571C9.40253 3.60571 8.99933 4.00891 8.99933 4.50571V5.72915L14.3993 10.0481V4.50571C14.3993 4.00891 13.9961 3.60571 13.4993 3.60571H9.89933ZM37.7993 9.90571C36.8445 9.90571 35.9289 10.285 35.2537 10.9601C34.5786 11.6353 34.1993 12.5509 34.1993 13.5057C34.1993 14.4605 34.5786 15.3762 35.2537 16.0513C35.9289 16.7264 36.8445 17.1057 37.7993 17.1057C38.7541 17.1057 39.6698 16.7264 40.3449 16.0513C41.02 15.3762 41.3993 14.4605 41.3993 13.5057C41.3993 12.5509 41.02 11.6353 40.3449 10.9601C39.6698 10.285 38.7541 9.90571 37.7993 9.90571ZM34.8849 18.011C34.5604 18.0001 34.2395 18.0406 33.9321 18.1252L27.3333 19.9991C26.8887 20.1287 26.5028 20.4059 26.2382 20.7848L22.8632 25.6223C22.2233 26.5403 22.4488 27.8019 23.3659 28.4418C23.7187 28.6884 24.123 28.8057 24.5226 28.8057C25.1625 28.8057 25.7922 28.5034 26.1855 27.9391L29.1509 23.6887L30.6187 23.2616L29.5587 26.1127C29.5569 26.119 29.5596 26.124 29.5569 26.1303L29.0314 27.5436C28.6687 28.5183 28.8753 29.6041 29.5692 30.379L33.9321 35.2481C33.9582 35.2769 33.9668 35.3133 33.9884 35.3448L34.9763 36.4487L36.5355 41.7467C36.7956 42.6296 37.6021 43.2004 38.4778 43.2004C38.9116 43.2004 39.363 43.06 39.7698 42.7504C40.4133 42.2617 40.6532 41.3975 40.4255 40.6217L38.745 34.9071C38.6811 34.6713 38.5728 34.4434 38.4216 34.2373L35.022 29.4965L37.715 22.2526C38.3207 20.6218 37.4913 18.8092 35.8605 18.2026C35.5387 18.0833 35.2093 18.0219 34.8849 18.011ZM39.5923 22.2069C39.5437 22.4328 39.4835 22.6587 39.4007 22.8819L38.0489 26.517L41.7597 29.3014C42.1242 29.575 42.5496 29.7057 42.9726 29.7057C43.5891 29.7057 44.1972 29.4255 44.595 28.8954C45.2655 28.0008 45.0836 26.7314 44.189 26.06L40.3552 23.186L39.5923 22.2069ZM4.49933 24.3057H9.89933C10.3961 24.3057 10.7993 24.7089 10.7993 25.2057V34.2057C10.7993 34.7025 10.3961 35.1057 9.89933 35.1057H4.49933C4.00253 35.1057 3.59933 34.7025 3.59933 34.2057V25.2057C3.59933 24.7089 4.00253 24.3057 4.49933 24.3057ZM28.1419 31.4706L27.5513 36.1903L23.9917 39.7481C23.2006 40.5392 23.2006 41.8222 23.9917 42.6133C24.3868 43.0084 24.9059 43.2057 25.4243 43.2057C25.9427 43.2057 26.4609 43.0084 26.8569 42.6133L30.8911 38.5774C31.1611 38.3137 31.3593 37.973 31.4484 37.5842L31.9071 35.6875L28.228 31.5795C28.1965 31.5444 28.1725 31.5065 28.1419 31.4706Z" fill="#FF6800" fill-opacity="0.85"/>
</g>
</g>
<defs>
<clipPath id="clip0_57_3320">
<rect width="45" height="45" fill="white"/>
</clipPath>
<clipPath id="clip1_57_3320">
<rect width="45" height="45" fill="white" transform="translate(0 0.00585938)"/>
</clipPath>
</defs>
</svg>
