<svg width="27" height="27" viewBox="0 0 27 27" fill="none" xmlns="http://www.w3.org/2000/svg">
<path d="M10.4062 3.375C9.32909 3.375 8.4375 4.26659 8.4375 5.34375V6.75H4.21875C3.13312 6.75 2.25 7.63312 2.25 8.71875V15.75H11.8125V15.4688C11.8125 15.0019 12.1894 14.625 12.6562 14.625H14.3437C14.8106 14.625 15.1875 15.0019 15.1875 15.4688V15.75H24.75V8.71875C24.75 7.63312 23.8669 6.75 22.7812 6.75H18.5625V5.34375C18.5625 4.26659 17.6709 3.375 16.5937 3.375H10.4062ZM10.4062 5.0625H16.5937C16.7597 5.0625 16.875 5.17779 16.875 5.34375V6.75H10.125V5.34375C10.125 5.17779 10.2403 5.0625 10.4062 5.0625ZM2.25 17.4375V21.6562C2.25 22.7419 3.13312 23.625 4.21875 23.625H22.7812C23.8669 23.625 24.75 22.7419 24.75 21.6562V17.4375H15.1875V17.7188C15.1875 18.1856 14.8106 18.5625 14.3437 18.5625H12.6562C12.1894 18.5625 11.8125 18.1856 11.8125 17.7188V17.4375H2.25Z" fill="#006CBD"/>
</svg>
