<svg width="45" height="45" viewBox="0 0 45 45" fill="none" xmlns="http://www.w3.org/2000/svg">
<path d="M22.5008 1.80078C11.087 1.80078 1.80078 11.087 1.80078 22.5008C1.80078 33.9155 11.087 43.2008 22.5008 43.2008C33.9155 43.2008 43.2008 33.9155 43.2008 22.5008C43.2008 11.087 33.9155 1.80078 22.5008 1.80078ZM32.2451 14.9066L21.8852 30.1733L13.7879 22.6592C13.4234 22.3217 13.4018 21.752 13.7402 21.3875C14.0777 21.0221 14.6483 21.0023 15.0119 21.3398L21.5729 27.4274L30.7556 13.895C31.0355 13.4837 31.5953 13.3775 32.0057 13.6556C32.4179 13.9346 32.525 14.4944 32.2451 14.9066Z" fill="#006CBD"/>
</svg>
