<svg width="27" height="27" viewBox="0 0 27 27" fill="none" xmlns="http://www.w3.org/2000/svg">
<path d="M7.59375 3.375V4.21875H4.21875V22.7812H14.001C15.0095 25.2433 17.4353 27 20.25 27C23.9612 27 27 23.9612 27 20.25C27 17.4353 25.2433 15.0095 22.7812 14.001V4.21875H19.4062V3.375H17.7188V4.21875H9.28125V3.375H7.59375ZM5.90625 5.90625H7.59375V6.75H9.28125V5.90625H17.7188V6.75H19.4062V5.90625H21.0938V7.59375H5.90625V5.90625ZM5.90625 9.28125H21.0938V13.5527C20.8136 13.5165 20.5367 13.5 20.25 13.5C16.5388 13.5 13.5 16.5388 13.5 20.25C13.5 20.5367 13.5165 20.8136 13.5527 21.0938H5.90625V9.28125ZM20.25 15.1875C23.035 15.1875 25.3125 17.465 25.3125 20.25C25.3125 23.035 23.035 25.3125 20.25 25.3125C17.465 25.3125 15.1875 23.035 15.1875 20.25C15.1875 17.465 17.465 15.1875 20.25 15.1875ZM19.4062 16.875V20.751L17.9824 22.2012L19.1426 23.3613L21.0938 21.4365V16.875H19.4062Z" fill="#2D5697"/>
</svg>
