<svg width="20" height="20" viewBox="0 0 20 20" fill="none" xmlns="http://www.w3.org/2000/svg">
<path d="M9.99902 2.5C3.51776 2.5 0.132487 9.72982 0.132487 9.72982L0.00390625 10L0.132487 10.2702C0.132487 10.2702 3.51776 17.5 9.99902 17.5C16.4803 17.5 19.8656 10.2702 19.8656 10.2702L19.9941 10L19.8656 9.72982C19.8656 9.72982 16.4803 2.5 9.99902 2.5ZM9.99902 3.75C15.1594 3.75 18.1872 9.24585 18.5814 10C18.1872 10.7542 15.1594 16.25 9.99902 16.25C4.83863 16.25 1.81087 10.7542 1.41667 10C1.81087 9.24585 4.83863 3.75 9.99902 3.75ZM9.99902 5.83333C8.66222 5.83333 7.58047 6.35714 6.87565 7.15006C6.17083 7.94299 5.83236 8.97569 5.83236 10C5.83236 11.0243 6.17083 12.057 6.87565 12.8499C7.58047 13.6429 8.66222 14.1667 9.99902 14.1667C11.3358 14.1667 12.4176 13.6429 13.1224 12.8499C13.8272 12.057 14.1657 11.0243 14.1657 10C14.1657 8.97569 13.8272 7.94299 13.1224 7.15006C12.4176 6.35714 11.3358 5.83333 9.99902 5.83333ZM9.99902 7.08333C11.0233 7.08333 11.7124 7.44494 12.1882 7.98014C12.6639 8.51534 12.9157 9.25347 12.9157 10C12.9157 10.7465 12.6639 11.4847 12.1882 12.0199C11.7124 12.5551 11.0233 12.9167 9.99902 12.9167C8.97472 12.9167 8.28563 12.5551 7.8099 12.0199C7.33416 11.4847 7.08236 10.7465 7.08236 10C7.08236 9.25347 7.33416 8.51534 7.8099 7.98014C8.28563 7.44494 8.97472 7.08333 9.99902 7.08333Z" fill="#2D5697"/>
</svg>
