<svg width="30" height="30" viewBox="0 0 30 30" fill="none" xmlns="http://www.w3.org/2000/svg">
<path d="M15 3C10.76 3 9 5.72 9 9C9 10.11 9.5293 11.2207 9.5293 11.2207C9.3193 11.3407 8.97078 11.7302 9.05078 12.4102C9.22078 13.7002 9.77086 14.0208 10.1309 14.0508C10.2609 15.2408 11.55 16.78 12 17V19C11.9978 19.0066 11.9925 19.011 11.9902 19.0176C11.6595 19.0586 11.3645 19.2538 11.2148 19.5566L10.9023 20.1855C8.43429 21.5694 3 21.2263 3 27H14V21C14 19.35 15.35 18 17 18H18V17C18.45 16.78 19.7391 15.2408 19.8691 14.0508C20.2291 14.0208 20.7792 13.7002 20.9492 12.4102C21.0292 11.7202 20.6807 11.3407 20.4707 11.2207C20.4707 11.2207 21 10.21 21 9C21 6.57 20.05 4.5 18 4.5C18 4.5 17.29 3 15 3ZM22 18C20.895 18 20 18.895 20 20H17C16.45 20 16 20.45 16 21V25C16 25.55 16.45 26 17 26H21C21 25.45 21.45 25 22 25H24C24.55 25 25 25.45 25 26H29C29.55 26 30 25.55 30 25V21C30 20.45 29.55 20 29 20H26C26 18.895 25.105 18 24 18H22ZM16 27.8203V29C16 29.55 16.45 30 17 30H29C29.55 30 30 29.55 30 29V27.8203C29.69 27.9403 29.35 28 29 28H17C16.65 28 16.31 27.9403 16 27.8203Z" fill="#6E6E71" fill-opacity="0.35"/>
</svg>
